<svg width="1920" height="1080" viewBox="0 0 1920 1080" fill="none" xmlns="http://www.w3.org/2000/svg">
<g clip-path="url(#clip0_47_135)">
<path d="M0 679L9.005 678.005L9.115 672.063L12.07 671.453C11.435 667.475 12.72 662.195 12.025 658.465C11.5425 655.863 9.19 656.838 8.915 654.538C7.8 645.225 9.915 633.585 9 624H64.5C67.2425 626.38 65.63 630.708 66 634H87L87.0675 669.453L83.93 670.548V689.453L87.0675 690.548L87.0025 726.005H90.9925L92.0025 707.995C95.0075 704.29 93.6375 716.66 94 717.005H96.9925L97.0025 708.005C97.935 707.575 99.9975 708.89 99.9975 709.5V726H105.998V707H125.998V726H129.998V610C135.015 610.865 143.94 608.823 148.353 609.988C149.385 610.26 148.675 612.358 149.49 611.998C154.098 607.91 162.375 610.885 168.31 609.965C168.97 610.168 169.998 612.223 169.998 612.5V671C174.613 673.588 175.43 671.048 178.443 670.94C183.085 670.773 190.398 670.063 193.998 672.5V730H195.998V580.5C195.998 577.21 209.043 577.713 211.55 577.938C213.665 578.128 215.26 579.98 216.298 579.818C217.405 579.643 218.418 578.158 221.43 577.928C223.843 577.743 235.998 577.255 235.998 580.5V618L248.998 619V405.5C248.998 399.198 267.735 398.993 269.01 404.993H269.988C270.073 404.148 269.698 402.81 270.16 402.195C271.375 400.573 286.868 399.945 288.998 403.5V620C290.038 620.113 291.073 618 291.498 618H307.498L308.998 619.5V743L317.003 742.995C317.913 743.903 315.155 754.17 318.988 755C319.253 754.638 318.193 743.273 320.993 746.995L322.003 756.005C325.01 759.698 323.638 747.34 324 746.995L326.995 747V765H332.995V747C338.858 746.88 338.645 743.7 339.035 738.535C339.7 729.725 337.038 722.263 336.983 715.515C336.92 707.933 340.183 699.015 339.025 689.47C337.848 679.733 338.393 680.86 339.03 671.538C339.643 662.553 336.548 648.86 338.008 641.52C338.458 639.258 340.628 638.475 340.853 637.36C341.555 633.883 333.7 629.25 346.625 626.423C357.55 624.03 379.293 624.1 390.34 625.358C392.088 625.558 400.115 626.783 401.235 627.243C406.725 629.508 402.44 634.6 403.145 637.31C403.613 639.11 405.793 639.015 406.09 643.475C406.703 652.625 402.72 661.223 403.968 671.533C404.403 675.135 407.1 678.683 406.925 682.43C406.608 689.285 402.558 695.36 403.95 705.55C404.393 708.793 407.103 711.743 407.02 715.538C406.95 718.72 404.37 721.203 403.948 725.455C403.62 728.75 403.573 736.273 404.06 739.443C404.52 742.428 407.065 745.165 407.035 748.525C407.008 751.598 404.365 754.235 403.948 758.458C402.978 768.218 407.203 776.483 406.928 782.433C406.793 785.368 404.37 788.155 403.973 791.48C403.598 794.61 403.538 803.475 404.058 806.448C404.538 809.185 407.108 811.63 406.925 815.435C406.788 818.308 404.49 820.808 404.06 823.57C403.56 826.79 403.578 835.235 403.97 838.533C404.393 842.07 407.065 845.123 407.035 848.525C407.008 851.643 404.415 853.925 403.973 857.483C402.715 867.608 407.238 876.243 406.928 882.433C406.78 885.35 404.478 887.218 404.055 889.563C403.593 892.125 403.675 907.953 405.143 908.865C407.608 908.918 413.97 910.09 414.86 907.365C416.373 894.548 413.348 878.88 414.92 866.438C415.163 864.525 416.835 865.485 417.078 863.573C417.69 858.73 417.69 843.28 417.078 838.438C416.835 836.525 415.163 837.485 414.92 835.573C413.918 827.655 413.918 801.355 414.92 793.438C415.163 791.525 416.835 792.485 417.078 790.573C417.69 785.73 417.69 770.28 417.078 765.438C416.835 763.525 415.163 764.485 414.92 762.573C413.918 754.655 413.918 728.355 414.92 720.438C415.163 718.525 416.835 719.485 417.078 717.573C417.69 712.73 417.69 697.28 417.078 692.438C416.835 690.525 415.163 691.485 414.92 689.573C413.918 681.655 413.918 655.355 414.92 647.438C415.163 645.525 416.835 646.485 417.078 644.573C417.69 639.73 417.69 624.28 417.078 619.438C416.835 617.525 415.163 618.485 414.92 616.573C413.918 608.655 413.918 582.355 414.92 574.438C415.163 572.525 416.835 573.485 417.078 571.573C417.69 566.73 417.69 551.28 417.078 546.438C416.835 544.525 415.163 545.485 414.92 543.573C413.253 530.39 416.323 513.593 415 500.005H467V428.505C468.75 425.325 480.063 427.953 481.005 427.01L481.14 364.645C482.138 361.598 490.283 363.503 493 363.005V427.005C493.65 427.08 495 425.68 495 425.505V363.005H506V425.505C506 425.68 507.35 427.08 508 427.005V363.005C511.858 363.523 517.098 361.573 520 364.505V427.005H533V472.005C537.148 472.58 542.82 470.503 546 473.505V537.005H547V472.005H559V537.005C563.44 537.628 569.535 535.443 573 538.505V909.005H627C626.603 906.54 627.593 902.883 627.023 900.703C626.758 899.685 624.98 899.713 624.53 899.02C623.453 897.358 623.33 862.943 623.975 859.473C624.458 856.87 626.81 857.845 627.085 855.545C627.45 852.505 627.595 833.89 627.023 831.705C626.755 830.685 624.983 830.715 624.53 830.02C622.033 826.173 625.368 795.433 623.93 788.553L627.068 787.458V761.553L623.93 760.458L623.975 720.47C628.065 717.223 628.19 697.163 627.023 692.703C626.755 691.683 624.983 691.713 624.53 691.018C623.453 689.355 623.33 654.94 623.975 651.47C624.458 648.868 626.81 649.843 627.085 647.543C627.45 644.503 627.595 625.888 627.023 623.703C626.755 622.683 624.983 622.713 624.53 622.018C622.033 618.17 625.368 587.43 623.93 580.55L627.068 579.455V553.55L623.93 552.455L623.975 512.468C628.065 509.22 628.19 489.16 627.023 484.7C626.755 483.68 624.983 483.71 624.53 483.015C623.478 481.395 623.468 448.548 623.948 444.45C624.118 442.995 624.073 441.878 625.498 441H680.998L681.008 451.995L681.998 452V420C684.065 420.508 683.61 421.47 683.58 422.98C683.358 434.46 683.65 444.155 684.04 455.458C684.203 460.17 683.118 479.708 684.503 481.995C685.203 483.15 688.278 484.103 689.848 486.648C695.973 496.565 688.088 504.42 688.003 513.993C690.41 516.473 694.74 507.755 695.045 505.545C695.595 501.56 695.585 488.458 695.078 484.43C694.835 482.518 693.163 483.478 692.92 481.565C691.29 468.685 694.295 452.275 693 438.998H748.5C749.928 439.875 749.88 440.99 750.05 442.448C751.498 454.775 748.815 469.805 750.068 482.45L746.93 483.545C747.845 491.738 745.963 501.59 746.915 509.535C747.193 511.858 749.87 511.048 750.025 513.463L750.07 554.45L746.933 555.545C747.848 563.738 745.965 573.59 746.918 581.535C747.195 583.858 749.873 583.048 750.028 585.463L750.073 626.45L746.935 627.545C747.85 635.738 745.968 645.59 746.92 653.535C747.198 655.858 749.875 655.048 750.03 657.463L750.075 698.45L746.938 699.545C747.853 707.738 745.97 717.59 746.923 725.535C747.2 727.858 749.878 727.048 750.033 729.463L750.078 770.45L746.94 771.545L747.003 783.003L757.008 782.998V811.498C757.008 811.673 758.358 813.073 759.008 812.998V782.998H771.008V812.998H772.008V782.998L784.013 782.993C784.668 783.648 783.54 798.605 783.955 801.55C784.453 805.08 787.428 808.398 786.003 813.003C786.84 813.845 796.453 811.433 798.008 814.498V848.998L813.013 849.993C812.363 854.453 813.438 857.475 815.06 861.445L815.008 908.998H860.508C862.705 907.853 861.485 905.19 862.063 903.73C862.448 902.755 863.82 903.375 864.083 901.57C864.99 895.315 862.15 895.255 861.93 893.563C861.403 889.525 861.418 876.493 861.93 872.428C862.17 870.518 863.813 871.49 864.083 869.568C864.96 863.29 862.153 863.26 861.93 861.563C861.403 857.525 861.418 844.493 861.93 840.428C862.17 838.518 863.813 839.49 864.083 837.568C864.96 831.29 862.153 831.26 861.93 829.563C861.425 825.7 861.44 813.315 861.93 809.428C862.17 807.518 863.813 808.49 864.083 806.568C864.96 800.29 862.153 800.26 861.93 798.563C861.403 794.525 861.418 781.493 861.93 777.428C862.17 775.518 863.813 776.49 864.083 774.568C864.96 768.29 862.153 768.26 861.93 766.563C861.403 762.525 861.418 749.493 861.93 745.428C862.17 743.518 863.813 744.49 864.083 742.568C864.96 736.29 862.153 736.26 861.93 734.563C861.403 730.525 861.418 717.493 861.93 713.428C862.17 711.518 863.813 712.49 864.083 710.568C864.96 704.29 862.153 704.26 861.93 702.563C861.043 695.78 862.745 687.025 862.01 679.995H881.01V659.995L884.898 659.893C886.395 658.663 886.315 634.298 886.018 630.488C885.225 620.403 885.518 619.4 886.045 609.53C886.67 597.81 884.258 587.775 883.978 577.453C883.71 567.625 886.673 555.2 886.045 543.458C885.52 533.635 885.55 531.365 886.045 521.528C886.705 508.41 883.363 491.143 884.953 479.435C885.405 476.105 887.848 475.48 888.053 473.455C888.375 470.265 884.738 469.073 886.758 464.258C887.933 461.458 890.948 461.013 893.64 460.408C904.58 457.955 926.213 458.16 937.355 459.343C938.668 459.483 948.538 461.29 949.048 461.598C953.625 464.353 949.295 471.708 949.99 475.298C950.145 476.095 951.853 476.033 952.328 477.195C953.235 479.42 953.373 491.4 952.988 494.385C952.695 496.653 949.658 499.49 951.003 502.993H957.008V475.99C962.375 474.915 966.288 472.288 972.003 473.99C973.065 454.223 972.195 434.243 973.008 414.48C973.058 413.263 972.253 410.76 973.998 410.995L974.543 475C980.505 477.798 976.068 486.05 977.053 491.448C977.59 494.39 981.988 498.968 982.173 502.83L989.048 504.655L989.443 532.055L1001.01 532.988C1001.22 541.438 999.893 549.433 1003.08 557.423L1002.94 665.38L1007 667.493V813.993C1009.61 810.77 1027 811.045 1027 814.493V908.993L1034.02 908.418L1033.93 454.425C1033.97 452.605 1035.84 453.483 1036.08 451.56C1036.49 448.373 1035.27 431.715 1036 430.988L1046.95 430.928C1047.02 428.37 1048.07 425.853 1049.03 423.545C1049.61 422.138 1048.49 421.278 1051.5 421.985C1051.95 422.093 1054.03 429.62 1054.06 430.928L1062.01 430.988C1062.84 427.083 1059.52 425.573 1058.12 422.373C1054.25 413.48 1052.84 398.55 1058.98 390.478C1060.4 388.615 1063 388.99 1063 385.493V303.993C1064.78 304.4 1064.99 305.758 1064.96 307.348C1064.34 333.483 1065.39 360.073 1064.99 386.505C1075.57 395.763 1074.84 411.878 1069.22 423.705C1068.06 426.143 1064.99 427.34 1066 430.988L1071.86 430.838L1075.51 421.985C1077.17 421.453 1078.32 425.388 1078.88 426.633C1079.51 428.035 1079.9 429.368 1080.11 430.878L1092.01 430.988C1092.74 431.715 1091.52 448.373 1091.92 451.56C1092.17 453.483 1094.04 452.605 1094.08 454.425L1094 537.993H1119V555.993H1164.5C1165.93 556.87 1165.88 557.985 1166.05 559.443C1167.28 569.928 1164.98 582.688 1166.07 593.445L1162.93 594.54L1162.94 614.365C1166.01 616.175 1169.35 617.568 1173.01 616.988L1173 626.993H1188.5C1188.8 626.993 1189.92 628.365 1191 627.993V438.493C1191 432.19 1209.74 431.985 1211.01 437.985H1211.99C1212.07 437.14 1211.7 435.803 1212.16 435.188C1213.38 433.565 1228.87 432.938 1231 436.493V628.993C1236.7 625.65 1244.77 626.685 1251 627.993V707.993H1255V686.493C1255 686.215 1256.02 684.16 1256.69 683.958L1266 683.988C1267.02 680.823 1264.15 681.56 1263.92 679.555C1263.7 677.55 1263.61 670.418 1264.02 668.68C1264.21 667.87 1265.84 668.413 1266.08 666.56C1267.36 656.793 1263.04 649.28 1263.93 641.42C1264.28 638.323 1265.71 637.033 1266.05 634.545C1267.45 624.535 1263.59 619.103 1263.01 610.483C1262.8 607.4 1262.44 589.438 1263.93 588.425L1269 587.995L1268.95 536.44C1272.55 529.16 1270.5 520.853 1270.99 512.988L1281.94 512.93L1285.5 504.013L1289.15 512.828L1297 512.988C1297.98 508.803 1294.39 507.71 1292.79 504.698C1289.45 498.39 1288.49 483.858 1292.15 477.64C1293.19 475.86 1298 471.988 1298 470.493V394.993C1301.73 394.14 1299.01 400.848 1298.95 403.445C1298.76 412.235 1299.9 420.873 1300.04 429.453C1300.21 439.613 1298.06 464.32 1299.98 472.288C1300.07 472.64 1303.83 475.05 1305.2 477.29C1309.99 485.123 1308.37 496.353 1304.88 504.373C1303.48 507.575 1300.17 509.085 1301 512.988L1306.86 512.838L1310.5 504.973L1312.96 505.723L1315.15 512.825L1327.01 512.988L1329.01 569.993L1358 565.993V522.493L1359.5 520.993H1413.5C1414.93 521.87 1414.88 522.985 1415.05 524.443C1416.53 537.078 1413.79 552.485 1415.07 565.445L1411.93 566.54C1413.03 571.605 1410.46 589.83 1412.53 593.008C1412.95 593.648 1414.48 593.745 1414.77 594.203C1416.87 597.585 1413.61 630.763 1415.07 637.448L1411.93 638.543C1412.94 645.435 1410.8 655 1412 661.498C1412.21 662.638 1412.35 663.523 1413.64 663.855L1423.01 663.99C1422.67 670.038 1423.47 676.48 1422.99 682.475C1422.47 688.985 1418.33 693.028 1420.03 700.308C1420.22 701.118 1421.84 700.578 1422.08 702.428C1423.17 710.755 1418.42 717.42 1420.03 724.308C1420.22 725.118 1421.85 724.578 1422.08 726.428C1423.12 734.45 1418.38 740.275 1420.03 747.308C1420.22 748.118 1421.85 747.578 1422.08 749.428C1423.14 757.595 1418.87 761.805 1420.05 769.445C1420.33 771.213 1421.72 772.43 1422.07 775.418C1422.92 782.615 1418.35 787.12 1420.03 794.305C1420.22 795.115 1421.85 794.575 1422.08 796.425C1423.12 804.448 1418.38 810.273 1420.03 817.305C1420.22 818.115 1421.85 817.575 1422.08 819.425C1423.14 827.593 1418.86 831.808 1420.05 839.443C1420.3 841.02 1421.73 842.2 1422.05 844.435C1423.11 851.873 1418.69 858.703 1423.17 865.808L1427 865.995C1428.34 861.125 1425.29 857.728 1424.93 853.55C1424.48 848.453 1426.63 845.19 1427.05 840.53L1427 739.988H1446L1445.94 731.535L1449.07 730.44V708.535L1445.94 707.44V669.535L1449.07 668.44V646.535L1445.94 645.44V607.535L1449.07 606.44V584.535L1445.94 583.44V545.535L1449.07 544.44C1448.16 538.44 1450.08 530.085 1449.03 524.453C1448.55 521.85 1446.19 522.825 1445.92 520.525C1445.09 513.568 1445.13 493.433 1445.95 486.435C1446.12 484.98 1446.08 483.863 1447.5 482.985H1503C1501.87 494.725 1504.5 509.128 1503.09 520.523C1502.81 522.768 1500.67 522.1 1500.15 523.603C1499.56 525.333 1499.64 537.453 1501.98 535.983L1504.99 532.983C1503.46 538.39 1514.27 541.213 1515 537.468C1515.13 536.775 1510.35 531.125 1509.52 528.965C1506.45 520.928 1507.34 511.708 1516.05 508.318C1516.07 489.37 1516.79 470.898 1516.42 451.963C1516.39 450.45 1515.94 449.49 1518 448.983V501.483C1518 511.365 1521.26 507.65 1524.42 513.07C1526.88 517.293 1526.51 524.755 1524.79 529.273C1523.36 533.055 1520.39 534.06 1519.01 537.468L1524.29 538.793C1527.25 538.77 1527.59 532.085 1529.49 532.99C1530.96 533.69 1532 537.983 1534.71 538.778C1536.91 539.423 1544.61 538.583 1545.01 538.978C1545.77 544.483 1542.99 551.39 1547.08 555.415L1546.98 908.403C1556.66 911.76 1553.72 902.943 1555.04 897.698C1556.17 893.208 1561.55 887.178 1560.97 879.523C1560.47 872.97 1559.99 875.883 1560.95 868.428C1561.77 861.965 1558.9 857.63 1559 854.598C1559.13 850.503 1561.95 846.698 1561.05 840.428C1560.71 838.03 1558.93 836.663 1559 834.598C1559.13 830.503 1561.95 826.698 1561.05 820.428C1560.71 818.03 1558.93 816.663 1559 814.598C1559.13 810.503 1561.96 806.693 1561.05 800.425C1560.7 798.03 1558.87 796.548 1558.97 794.57C1559.18 790.635 1561.99 786.953 1561.05 780.428C1560.71 778.03 1558.87 776.555 1558.97 774.57C1559.15 771.19 1561.62 768.44 1561.05 762.423C1560.76 759.36 1558.86 756.54 1559 754.555C1559.12 752.835 1560.71 751 1561.03 748.515C1561.87 741.895 1557.29 732.37 1562.04 728.343C1566.06 640.005 1559.49 549.268 1564.04 460.523C1564.33 454.915 1563.6 449.228 1564.14 443.62C1565.13 440.568 1572.35 442.548 1574.94 441.915L1577 432.975L1579.98 432.98L1582.04 441.935L1590 441.985C1591.42 437.218 1588.42 437.41 1587.32 435.19C1582.82 426.073 1580.87 412.608 1585.8 403.283C1587.14 400.735 1590.89 398.798 1591.02 398.275C1592.8 390.875 1590.75 368.833 1590.96 359.44C1591.01 357.075 1591.99 354.888 1592.04 352.523C1592.27 340.535 1591.51 328.443 1592 316.47C1592.05 315.253 1591.24 312.75 1592.99 312.985C1592.98 335.878 1592.76 358.765 1593.63 381.645C1593.79 385.905 1593.02 394.278 1593.98 398.283C1594.08 398.695 1597 400.345 1598.22 402.268C1602.45 408.918 1601.92 425.185 1598.74 432.223C1597.12 435.805 1593.24 437.743 1594 441.978L1600.94 441.918C1600.97 440.61 1603.05 433.083 1603.51 432.975C1606.51 432.268 1605.4 433.128 1605.98 434.535C1606.93 436.843 1607.98 439.36 1608.06 441.918L1620.01 441.978L1622 491.988L1634 491.983V514.983L1678.89 516.108C1684.39 521.723 1679.55 525.443 1679.98 529.463C1680.2 531.515 1682.61 532.098 1683.06 535.425C1684.68 547.343 1679.36 561.03 1680.97 574.513C1681.46 578.585 1684.14 582.725 1684.03 587.435C1683.94 591.213 1681.52 594.433 1681.06 597.543C1680.45 601.7 1680.52 612.22 1680.95 616.535C1681.41 621.218 1684.15 625.598 1684.03 630.435C1683.94 634.213 1681.52 637.433 1681.06 640.543C1680.45 644.7 1680.52 655.22 1680.95 659.535C1681.41 664.218 1684.15 668.598 1684.03 673.435C1683.94 677.213 1681.52 680.433 1681.06 683.543C1680.45 687.7 1680.52 698.22 1680.95 702.535C1681.41 707.218 1684.15 711.598 1684.03 716.435C1683.84 724.358 1678.22 736.695 1680.97 746.513L1684.99 760.975C1685.26 751.825 1684.68 742.595 1684.96 733.44C1685.03 731.06 1685.94 728.945 1686.05 726.523C1686.14 724.445 1683.05 720.268 1687 720.98V760.48L1692 762.98V739.98L1701.01 739.985C1702.1 738.893 1699.65 714.223 1701.68 709.188C1702.2 707.915 1703.83 708.508 1704.07 706.533C1704.43 703.575 1704.58 685.818 1704.02 683.678C1703.76 682.658 1701.98 682.688 1701.53 681.993C1700.51 680.415 1700.36 647.783 1700.98 644.445C1701.46 641.843 1703.81 642.818 1704.09 640.518C1704.44 637.578 1704.58 619.795 1704.02 617.678C1703.76 616.658 1701.98 616.688 1701.53 615.993C1700.51 614.415 1700.36 581.783 1700.98 578.445C1701.46 575.843 1703.81 576.818 1704.09 574.518C1704.44 571.578 1704.58 553.795 1704.02 551.678C1703.76 550.658 1701.98 550.688 1701.53 549.993C1700.51 548.415 1700.48 516.433 1700.95 512.428C1701.12 510.973 1701.07 509.855 1702.5 508.978H1758L1759.01 519.973L1761.5 510.998C1765.2 515.763 1759.64 522.37 1769 520.983L1769.44 511.915C1769.66 511.598 1775.96 509.325 1776.75 509.195C1779.55 508.743 1790 510.333 1790 513.478V539.978L1798 539.983C1797.66 537.423 1798.54 534.028 1797.98 531.665C1797.8 530.935 1796.28 531.09 1796.05 530.258C1795.16 527.048 1794.22 502.583 1795.14 501.118L1807 499.975V477.475C1807 476.865 1809.06 475.55 1809.99 475.98L1810 487.98H1813C1813.38 487.618 1812.75 479.363 1813 477.458C1813.17 476.078 1813.74 474.335 1814.99 475.98C1813.91 478.945 1816 483.598 1816 485.475V499.975H1822V475.975C1829.45 474.478 1834.55 474.478 1842 475.975V499.975L1854 500.975V519.975H1858V499.975C1861.91 499.513 1859 501.523 1859 502.475V518.475L1860.5 519.975H1900C1898.88 531.385 1901.48 545.48 1900.08 556.543C1899.84 558.455 1898.16 557.495 1897.92 559.408C1897.45 563.165 1897.45 574.785 1897.92 578.543C1898.16 580.455 1899.84 579.495 1900.08 581.408C1900.9 587.88 1900.9 609.07 1900.08 615.543C1899.84 617.455 1898.16 616.495 1897.92 618.408C1896.95 626.06 1899.03 631.108 1899.95 637.525C1900.39 640.62 1899.87 644.253 1900 647.485C1900.05 648.713 1899.24 651.2 1901 650.975V636.475L1904.99 634.923L1905.2 625.163C1910.45 624.378 1914.68 622.08 1920 623.973V1079.97H0V678.973V679ZM917.995 466.005C915.81 466.66 909.208 464.163 910.005 467.995C912.19 467.34 918.793 469.838 917.995 466.005ZM928 466.01C925.815 466.655 919.208 464.165 920.005 467.995C922.588 467.795 926.74 469.125 928 466.01ZM893 473.01L890.01 472L890.005 474.995L891.485 474.99L893 473.01ZM947.995 472.005L944.005 473.495C945.083 475.033 946.153 475.235 947.995 474.995V472.005ZM1639 522.01H1634.01V522.99H1639V522.01ZM1658 522H1640V523H1658V522ZM1665 522.01H1659.01V522.99H1665V522.01ZM1769 527.01L1764.01 526.003L1764 528.995H1769L1769 527.01ZM1678 528.005H1675.01V529.995H1678V528.005ZM1355 572.01H1353.01V572.99H1355V572.01ZM1361 572.005L1356.01 572.495C1357.2 574.185 1359.09 574.158 1361 573.995V572.005ZM370.995 630.005L362.993 631.005V633.998H371.005L370.995 630.008V630.005ZM380.995 631.005C377.843 631.77 372.818 627.823 372.005 632.485C372.453 634.633 381.67 635.395 380.995 631.005ZM352.995 632.995L352.99 631L350.008 632.013V632.99L352.995 632.995ZM361.995 631.005C359.81 631.66 353.208 629.163 354.005 632.995C356.19 632.34 362.793 634.838 361.995 631.005ZM388.995 631.005C386.88 631.57 381.175 629.283 382.005 632.995C384.12 632.43 389.825 634.718 388.995 631.005ZM393 632.99L391.01 631L391.005 632.995L393 632.99ZM1692 779.005L1688.01 780.015V781.995C1689.85 782.23 1690.94 782.055 1691.99 780.485L1692 779.005ZM1684 780.005L1681.01 780.495L1682.52 781.99L1684 781.995V780.005Z" fill="#1C3858"/>
</g>
<defs>
<clipPath id="clip0_47_135">
<rect width="1920" height="1080" fill="white"/>
</clipPath>
</defs>
</svg>
