<svg width="125" height="50" viewBox="0 0 125 50" fill="none" xmlns="http://www.w3.org/2000/svg">
<g clip-path="url(#clip0_15_350)">
<path fill-rule="evenodd" clip-rule="evenodd" d="M0.0792953 9.61671C0.436536 9.26536 1.00464 9.19653 1.43929 8.96266C2.36302 8.46555 3.44677 7.50449 3.69553 6.43351C3.42576 6.48468 3.18203 6.73404 2.94549 6.86791C2.49467 7.12323 1.96051 7.2789 1.44127 7.27728C1.06121 7.2762 0.592795 7.01332 0.727322 6.56306C0.972308 6.19261 1.54131 6.08324 1.90501 5.85171C2.72115 5.3319 3.66176 4.42795 3.82736 3.42111C3.59136 3.46634 3.38481 3.67318 3.19137 3.80525C2.71253 4.13228 2.11677 4.29858 1.54221 4.21786C1.20023 4.16976 0.862927 3.85084 0.963507 3.48238C1.16449 3.25229 1.45797 3.18364 1.73061 3.06959C2.07977 2.92364 2.41869 2.73986 2.69619 2.47842C3.12707 2.07266 3.46671 1.56366 3.66679 1.00637C3.77941 0.692681 3.79378 0.343138 3.95111 0.0478267C4.15461 -0.0300101 4.4885 -0.011452 4.66739 0.115753C4.75953 0.423857 4.75486 0.747097 4.85795 1.05286C5.08049 1.71285 5.59148 2.30437 6.15113 2.70527C6.56334 3.00058 7.70277 3.1377 7.57615 3.81949C7.42492 4.07985 7.08205 4.15318 6.80563 4.16885C6.14054 4.20651 5.45192 3.96579 4.91776 3.57498C5.12701 4.51389 5.73409 5.31658 6.56136 5.80613C6.95201 6.03729 7.49694 6.16882 7.81539 6.49278C7.87232 6.66017 7.84466 6.78666 7.77282 6.94756C7.58351 7.20557 7.23274 7.22088 6.93764 7.21314C6.21418 7.19458 5.48066 6.8335 4.88238 6.45152C5.23459 7.5016 6.0836 8.34808 7.02565 8.88753C7.45222 9.13167 8.05768 9.25077 8.39247 9.61833C8.45946 9.78553 8.42677 9.95238 8.36822 10.1172C8.14443 10.4234 7.72433 10.4154 7.37876 10.3933C6.39756 10.3304 5.72115 9.79004 4.92261 9.29887C4.85544 9.69905 4.86514 10.1717 4.89675 10.5772C4.48491 10.5432 4.07863 10.5929 3.66374 10.5387C3.56406 10.1167 3.68942 9.66049 3.63213 9.23023C2.87023 9.83274 2.02266 10.4025 1.01541 10.4162C0.597106 10.4217 -0.225141 10.2183 0.0792953 9.61671Z" fill="#1D395B"/>
<path fill-rule="evenodd" clip-rule="evenodd" d="M0.406537 37.9649C1.24136 37.8894 2.15395 37.6793 2.42462 36.7595C2.53579 36.3822 2.49323 35.9592 2.49251 35.5711C2.49125 34.9404 2.4943 34.3098 2.49359 33.6792C2.49107 31.5769 2.50831 29.4747 2.50957 27.3724C2.51011 26.5494 2.52717 25.7245 2.50221 24.9017C2.48946 24.4854 2.52196 24.0083 2.36571 23.615C2.19418 23.1835 1.79222 22.8154 1.35235 22.6723C1.09354 22.5884 0.725881 22.6002 0.504963 22.4566C0.470837 22.2711 0.468322 22.0916 0.49257 21.9044C2.15556 21.9426 3.82826 21.9143 5.49197 21.8966C5.97709 21.8914 6.46203 21.8855 6.94715 21.8803C7.14526 21.8781 7.41054 21.8203 7.59788 21.8891C7.58818 22.0911 7.5959 22.3058 7.62123 22.5066C7.59788 22.5509 7.41917 22.5278 7.37067 22.5307C7.18567 22.5424 7.00068 22.5839 6.82233 22.6334C6.28314 22.7835 5.69295 23.1983 5.53489 23.7665C5.27356 24.7069 5.42605 25.8634 5.42426 26.8324C5.4203 28.7845 5.42408 30.7364 5.42641 32.6884C5.42749 33.5167 5.43413 34.3455 5.42426 35.1738C5.41833 35.6761 5.35618 36.2449 5.49951 36.7334C5.76623 37.6427 6.69606 37.855 7.50592 37.9698C7.5704 38.1413 7.51615 38.3523 7.5343 38.5317C5.8695 38.5926 4.18586 38.5451 2.51873 38.5537C1.82347 38.5573 1.09839 38.5026 0.407076 38.5761C0.379057 38.3753 0.387858 38.1665 0.406537 37.9649Z" fill="#1D3A5A"/>
<path fill-rule="evenodd" clip-rule="evenodd" d="M0.479199 19.3078C1.19961 19.1942 1.99869 19.1098 2.47393 18.4778C2.88595 17.93 2.75017 17.0259 2.75376 16.3821C2.75915 15.3911 2.75645 14.4 2.75735 13.409C2.75807 12.7654 2.72251 12.0933 2.82345 11.4561C2.92618 11.3283 3.23439 11.3939 3.3964 11.397C3.90613 11.4065 4.41675 11.42 4.92648 11.4177C5.08849 11.4168 5.37245 11.3694 5.4856 11.4946C5.45471 12.9681 5.49692 14.4557 5.50195 15.9313C5.50428 16.5819 5.39777 17.3421 5.79794 17.9008C6.21804 18.4875 6.97366 18.6576 7.64773 18.7237C9.19972 18.8761 10.8715 18.3289 11.9328 17.1585C14.0159 14.8614 14.2916 10.8456 13.2192 8.02313C12.7111 6.68603 11.8626 5.55884 10.5493 4.93758C10.2048 4.77452 9.85314 4.64822 9.48548 4.54804C9.32796 4.50498 9.11459 4.50984 8.98437 4.41525C8.94342 3.98553 8.98689 3.52247 9.03682 3.09491C10.2472 2.83707 11.7705 3.45562 12.8102 4.02661C13.474 4.39128 14.084 4.85146 14.621 5.38695C17.6296 8.3869 17.7895 13.2719 15.3407 16.6744C14.2679 18.1648 12.6595 19.2617 10.8584 19.6462C9.36137 19.9657 7.81997 19.8916 6.29959 19.8763C4.38622 19.857 2.46297 19.8291 0.550143 19.8785C0.421005 19.7976 0.475966 19.4509 0.479199 19.3078Z" fill="#1D3959"/>
<path fill-rule="evenodd" clip-rule="evenodd" d="M1.23678 46.8177C1.51051 46.7928 2.06693 46.6373 2.31731 46.7417C2.61456 47.8417 3.89014 47.9209 4.85858 47.7701C5.28408 47.7038 5.99066 47.4786 5.93767 46.922C5.88972 46.4183 5.1975 46.3795 4.81566 46.339C3.6606 46.2159 1.34077 46.3002 1.40867 44.6051C1.41855 44.357 1.47315 44.1244 1.6136 43.9161C2.27438 42.9351 3.77788 43.012 4.80955 43.0925C5.1835 43.1217 5.54594 43.1976 5.88684 43.3601C6.31377 43.5637 6.71286 43.9341 6.80733 44.4197C6.81829 44.4768 6.89211 44.7759 6.84685 44.8172C6.52499 44.8217 6.20601 44.8347 5.8872 44.8777C5.65982 44.6967 5.64473 44.3705 5.35089 44.1985C4.76914 43.8579 3.75507 43.8675 3.11764 44.0395C2.86367 44.1082 2.49368 44.2646 2.48632 44.5768C2.47141 45.1981 3.17422 45.2948 3.6385 45.3512C4.79788 45.492 7.05142 45.2954 7.06364 46.9629C7.06525 47.1705 7.041 47.3678 6.95192 47.5572C6.72364 48.0424 6.15051 48.3705 5.64688 48.4912C4.61575 48.7386 3.32635 48.7923 2.3376 48.3476C1.70538 48.0633 1.21936 47.5505 1.23678 46.8177Z" fill="#1B375A"/>
<path fill-rule="evenodd" clip-rule="evenodd" d="M8.71898 38.2025C8.71772 38.1497 8.71628 38.0971 8.71484 38.0445C9.2772 37.9428 9.8717 37.8843 10.167 37.3142C10.4581 36.7524 10.354 35.9778 10.3504 35.3685C10.3426 34.0953 10.3536 32.8222 10.3552 31.5491C10.3559 30.9536 10.4793 30.1395 10.218 29.5873C9.94462 29.01 9.37562 28.8974 8.81489 28.7817C8.53955 28.4017 9.30863 28.1931 9.53853 28.0767C10.202 27.7405 10.875 27.425 11.5431 27.0999C11.8341 26.9583 12.1755 26.7581 12.5087 26.8253C12.7505 27.3972 12.6138 28.2342 12.6411 28.8511C12.6969 28.9183 12.772 28.8006 12.8162 28.7484C12.9644 28.5734 13.1206 28.414 13.2907 28.2605C13.7311 27.8628 14.2306 27.532 14.7456 27.2405C16.0608 26.4958 17.7493 26.6295 18.7377 27.8423C19.4797 28.7529 19.4714 29.9024 19.4631 31.0157C19.4533 32.3242 19.4551 33.6325 19.4552 34.9409C19.4556 35.9537 19.1833 37.4362 20.3784 37.8765C20.6514 37.9771 20.9332 37.9538 21.2172 37.9746C21.2731 38.1499 21.2303 38.3407 21.2477 38.5207C19.3909 38.6522 17.5002 38.3711 15.6468 38.5317C15.548 38.4101 15.5987 38.1935 15.5872 38.0416C16.2219 37.9809 16.797 37.7845 17.026 37.123C17.2561 36.4585 17.123 35.5995 17.1205 34.9074C17.1162 33.7885 17.1325 32.669 17.1146 31.5501C17.1049 30.9501 17.1458 30.3193 17.0205 29.7296C16.8369 28.8655 16.049 28.3199 15.1949 28.3587C14.3809 28.3956 13.6532 28.83 13.1063 29.4159C12.9604 29.5723 12.7275 29.7869 12.6643 29.9958C12.543 30.3965 12.6522 31.0065 12.6477 31.4278C12.6364 32.5298 12.6438 33.6319 12.6502 34.7339C12.6562 35.7886 12.3278 37.511 13.6244 37.9275C13.8421 37.9974 14.0929 38.0003 14.3201 38.0041C14.3316 38.1683 14.2843 38.4066 14.3351 38.5591C13.0682 38.4976 11.7903 38.5097 10.5204 38.5137C9.94265 38.5155 9.31132 38.5946 8.74071 38.507C8.72688 38.4021 8.71664 38.309 8.71898 38.2025Z" fill="#1B3859"/>
<path fill-rule="evenodd" clip-rule="evenodd" d="M9.58707 43.2061C10.5767 43.2076 11.5676 43.1842 12.558 43.1876C13.1139 43.1894 13.7421 43.147 14.2529 43.4063C15.3394 43.9578 15.6194 45.6897 14.4121 46.3C13.9864 46.5153 13.4923 46.5326 13.0264 46.5529C12.244 46.5874 11.4464 46.5609 10.6627 46.5346C10.6771 47.1634 10.5514 47.8765 10.6698 48.4945C10.3161 48.4978 9.96048 48.4792 9.60791 48.5099C9.54936 48.4403 9.58653 48.2174 9.59013 48.1232C9.60306 47.7832 9.59767 47.4418 9.60072 47.1016C9.61258 45.8031 9.58689 44.5045 9.58707 43.2061ZM10.6692 44.0784C10.6832 44.4559 10.6645 44.8393 10.6627 45.2178C10.6618 45.3778 10.6238 45.5895 10.6852 45.7367C11.402 45.7157 12.1222 45.7477 12.8398 45.7387C13.1853 45.7344 13.5878 45.7378 13.8641 45.4955C14.3014 45.1119 14.092 44.3892 13.5916 44.1775C13.257 44.036 12.852 44.0708 12.4965 44.0715C11.8877 44.0728 11.2777 44.0584 10.6692 44.0784Z" fill="#1C395D"/>
<path fill-rule="evenodd" clip-rule="evenodd" d="M17.5814 43.2062C18.7302 43.1925 19.8795 43.1934 21.0288 43.1914C21.598 43.1903 22.236 43.1132 22.7971 43.2074C22.7854 43.3907 22.6844 43.9215 22.7793 44.0597C21.4412 43.9717 20.0151 44.0236 18.6745 44.0843C18.6704 44.4299 18.6434 44.7735 18.663 45.1196C18.6689 45.2214 18.6402 45.3649 18.6984 45.4488C19.75 45.4591 20.8056 45.4281 21.8566 45.4508C21.8674 45.7038 21.8101 45.9897 21.8586 46.236C20.8075 46.1767 19.7225 46.2204 18.6697 46.2423C18.6492 46.7167 18.6542 47.1865 18.6646 47.6611C20.0611 47.7075 21.4626 47.6886 22.8599 47.6758C22.8314 47.8564 22.7922 48.3371 22.8727 48.4933C21.5707 48.4641 20.2644 48.501 18.9617 48.4992C18.6328 48.4987 18.3043 48.4956 17.9755 48.4917C17.8697 48.4904 17.6759 48.5391 17.5938 48.4688C17.5124 46.7169 17.6048 44.9586 17.5814 43.2062Z" fill="#1F3A5B"/>
<path fill-rule="evenodd" clip-rule="evenodd" d="M18.0486 19.3505C18.6151 19.2638 19.264 19.1986 19.6011 18.6622C19.9567 18.0963 19.8107 17.2015 19.8093 16.5628C19.806 15.2715 19.7908 13.9803 19.7872 12.689C19.7856 12.0976 19.8967 11.3057 19.6853 10.7438C19.5377 10.3515 19.0959 10.0787 18.7183 9.9454C18.5332 9.87999 18.1948 9.85585 18.1669 9.62793C18.3959 9.33874 18.8299 9.23333 19.1535 9.07964C19.6934 8.82343 20.2439 8.5901 20.7933 8.35569C21.1842 8.18921 21.591 7.9984 22.0229 8.01083C22.2469 8.75478 22.0876 9.75261 22.0871 10.5283C22.0858 12.2699 22.0765 14.0116 22.0871 15.7532C22.0914 16.4451 22.0815 17.1368 22.1171 17.8273C22.1395 18.2646 22.2103 18.679 22.5747 18.9647C22.956 19.2636 23.368 19.2348 23.8061 19.3444C23.8205 19.4849 23.9095 19.6851 23.8605 19.8227C22.9795 19.8734 22.0885 19.8294 21.2064 19.833C20.1464 19.8372 19.074 19.8836 18.0153 19.8373C18.0071 19.6813 17.9974 19.5249 17.9819 19.3692C18.0042 19.3629 18.0263 19.3568 18.0486 19.3505Z" fill="#1C3958"/>
<path fill-rule="evenodd" clip-rule="evenodd" d="M19.2238 4.77764C19.4099 3.13748 21.7669 2.68739 22.3488 4.318C22.4381 4.56845 22.454 4.8425 22.4242 5.10574C22.3982 5.33654 22.3186 5.54321 22.1992 5.74141C21.3694 7.1176 19.0343 6.4486 19.2238 4.77764Z" fill="#1B3A5A"/>
<path fill-rule="evenodd" clip-rule="evenodd" d="M21.3751 28.0858C22.4351 27.3119 23.327 26.5444 24.0433 25.4287C24.3995 24.8738 24.5707 24.2114 24.9342 23.6709C25.1159 23.661 25.2742 23.6417 25.4549 23.6749C25.5781 23.9939 25.5109 24.4213 25.5105 24.7611C25.51 25.5289 25.5005 26.2979 25.5246 27.0644C25.76 27.149 26.0991 27.082 26.3502 27.0833C27.0352 27.0871 27.7196 27.0881 28.4046 27.1044C28.7316 27.1121 29.1176 27.0433 29.4253 27.1672C29.5022 27.5036 29.0258 28.1052 28.7166 28.2155C28.3854 28.3335 27.9697 28.2849 27.6254 28.2892C26.9253 28.2984 26.2257 28.2798 25.5256 28.2883C25.5361 29.9247 25.521 31.5686 25.5131 33.207C25.5088 34.1014 25.4159 35.1048 25.6133 35.9806C25.8315 36.9502 26.8718 37.4269 27.7837 37.0552C28.2093 36.8817 28.5159 36.5516 28.8351 36.2331C28.9874 36.248 29.0853 36.3233 29.1306 36.4765C29.0535 36.8313 28.7482 37.1718 28.5235 37.4457C27.3492 38.8768 24.6813 39.4656 23.6144 37.5584C23.12 36.6743 23.1566 35.6439 23.1598 34.6619C23.164 33.3733 23.1674 32.0846 23.1659 30.796C23.1654 30.1845 23.1681 29.573 23.162 28.9613C23.1604 28.7955 23.2218 28.426 23.113 28.3036C22.7184 28.3207 22.3223 28.3276 21.9275 28.3366C21.7817 28.34 21.5276 28.4067 21.3923 28.3503C21.2255 28.2804 21.3038 28.193 21.3751 28.0858Z" fill="#1C3959"/>
<path fill-rule="evenodd" clip-rule="evenodd" d="M24.7624 15.9959C24.906 16.0015 25.0497 16.0078 25.1932 16.0092C25.4264 16.2781 25.4786 16.7793 25.6162 17.1103C25.9835 17.9937 26.5047 18.6769 27.4053 19.0587C27.8978 19.2674 28.4691 19.3566 28.9902 19.202C30.0308 18.8935 30.4858 17.7368 29.9949 16.7802C29.5829 15.9775 28.7279 15.5608 27.9824 15.1298C26.682 14.3783 25.3439 13.4802 25.1095 11.8758C24.8601 10.1668 26.0557 8.47347 27.76 8.16375C28.6031 8.0106 29.2996 8.27239 30.1195 8.36554C30.4558 8.40374 30.7717 8.29978 31.1015 8.25636C31.2168 8.24122 31.4104 8.2014 31.5097 8.25996C31.5458 9.11364 31.5701 9.96751 31.5941 10.8221C31.6024 11.1138 31.53 11.6507 31.674 11.9066C31.5253 11.8958 31.375 11.9026 31.2254 11.8913C30.7525 10.836 30.3518 9.66084 29.2265 9.13202C28.1187 8.61149 26.6684 9.30481 26.8232 10.641C26.9063 11.3599 27.5224 11.8021 28.0785 12.1711C29.2053 12.9188 30.5651 13.3862 31.4409 14.4732C33.0813 16.5092 31.7516 19.6117 29.2743 20.0888C28.4745 20.2429 27.6781 20.1641 26.8918 19.9713C26.235 19.8103 25.682 19.5935 24.9978 19.5904C24.8856 18.9368 24.9344 18.2308 24.8773 17.5661C24.8342 17.0636 24.6743 16.4955 24.7624 15.9959Z" fill="#1D3958"/>
<path fill-rule="evenodd" clip-rule="evenodd" d="M24.9628 45.3175C25.106 44.6102 25.417 43.9336 26.0403 43.5255C27.7836 42.3839 30.8581 42.9772 31.3958 45.1793C31.0224 45.1433 30.5984 45.0963 30.2264 45.1426C30.0908 45.026 30.0296 44.7597 29.911 44.6075C29.6806 44.3112 29.3499 44.1129 28.9965 44.0008C28.2225 43.7552 27.0908 43.8539 26.5231 44.495C25.8903 45.2096 25.8943 46.5038 26.5432 47.2099C26.8983 47.5962 27.4312 47.7611 27.9402 47.7991C28.3502 47.8298 28.7815 47.7896 29.1727 47.6591C29.4943 47.5517 29.7713 47.3557 29.9735 47.0829C30.0804 46.939 30.1301 46.7417 30.2713 46.629C30.6447 46.6431 31.0206 46.6391 31.3935 46.617C31.386 46.8083 31.2531 47.0296 31.1629 47.1937C30.6823 48.0688 29.9795 48.4198 29.0401 48.6213C27.2852 48.9977 25.2592 48.2822 24.9616 46.3404C24.91 46.0042 24.9095 45.6537 24.9628 45.3175Z" fill="#1E395B"/>
<path fill-rule="evenodd" clip-rule="evenodd" d="M29.6373 31.9866C29.7555 31.2185 29.8979 30.4765 30.2575 29.778C31.2987 27.7566 33.4987 26.4829 35.7779 26.8085C37.4488 27.0472 38.8564 28.2913 39.2679 29.9452C39.3568 30.3025 39.5589 31.027 39.3888 31.3758C38.7548 31.6516 37.9077 31.5511 37.2349 31.5158C36.0878 31.4554 34.9282 31.4958 33.7798 31.5008C33.3019 31.5028 32.8234 31.4925 32.3456 31.501C32.2132 31.5034 31.9578 31.477 31.8756 31.5866C31.8724 33.0035 32.1193 34.4521 33.0763 35.5586C34.7443 37.4872 37.6232 37.3454 38.9881 35.1705C39.1314 35.1729 39.3257 35.3056 39.4267 35.4055C38.6915 37.2408 36.944 38.7369 34.9314 38.7782C34.2058 38.793 33.4782 38.6092 32.8157 38.3204C32.298 38.0948 31.823 37.7762 31.4079 37.3928C29.9583 36.0541 29.4634 33.8954 29.6373 31.9866ZM31.9719 30.6499C31.9683 30.6756 31.9649 30.7014 31.9613 30.7271C32.9852 30.6781 34.0109 30.6814 35.0378 30.6799C35.5649 30.6792 36.1686 30.7598 36.6855 30.6405C36.8816 30.3279 36.8462 29.883 36.7873 29.534C36.5991 28.4165 35.5924 27.5146 34.4345 27.6495C33.3586 27.7751 32.578 28.736 32.2172 29.6949C32.0992 30.0086 32.0667 30.3329 31.9719 30.6499Z" fill="#1C3859"/>
<path fill-rule="evenodd" clip-rule="evenodd" d="M33.6688 17.2064C34.1842 15.2362 36.3279 14.3593 37.9838 13.5321C38.3968 13.3258 38.8934 13.1568 39.2447 12.8506C39.3713 12.5597 39.2939 12.0806 39.297 11.7651C39.3027 11.182 39.371 10.5341 39.1109 9.99465C38.703 9.14907 37.5014 9.17484 36.8114 9.62492C36.2831 9.96924 36.0306 10.5071 35.9979 11.1244C35.9827 11.4135 36.048 11.8049 35.9281 12.0728C35.5663 12.3964 34.9337 12.4923 34.4655 12.4807C34.2124 12.4744 33.9734 12.4144 33.9287 12.1269C33.8119 11.3754 34.3276 10.6348 34.7601 10.0755C35.9467 8.54079 38.5893 7.33468 40.4001 8.47575C41.504 9.17123 41.544 10.3456 41.5487 11.5177C41.5541 12.929 41.5421 14.3404 41.5444 15.7517C41.5458 16.5221 41.2475 18.0717 42.0725 18.5017C42.5958 18.7747 42.9229 18.3473 43.4028 18.3169C43.662 18.7291 43.2448 19.0232 42.9398 19.2552C42.202 19.8167 41.3833 20.1963 40.429 20.0284C39.9655 19.9468 39.5782 19.6286 39.4259 19.176C39.3568 18.9709 39.3135 18.7581 39.2934 18.5426C39.2883 18.4871 39.3119 18.3277 39.2319 18.3423C38.4384 19.1385 37.4653 19.9138 36.3282 20.0806C34.6097 20.3327 33.3248 18.8918 33.6688 17.2064ZM35.9259 16.7645C35.87 17.7371 36.5261 18.6475 37.5747 18.5084C37.9337 18.4608 38.2603 18.25 38.5516 18.0479C38.8005 17.8751 39.1213 17.6412 39.2558 17.3614C39.4778 16.1567 39.2406 14.8281 39.2849 13.607C37.8931 14.3477 36.2142 15.0465 35.9259 16.7645Z" fill="#1C3858"/>
<path fill-rule="evenodd" clip-rule="evenodd" d="M33.9268 43.1898C34.24 43.1911 34.7216 43.1052 35.0133 43.2201C35.0291 44.9743 35.0996 46.752 35.0533 48.5027C34.7103 48.4561 34.2973 48.471 33.9546 48.506C33.8806 48.026 33.936 47.4973 33.9347 47.0119C33.9315 45.7435 33.9976 44.4559 33.9268 43.1898Z" fill="#1C3657"/>
<path fill-rule="evenodd" clip-rule="evenodd" d="M37.4666 48.3783C38.3223 46.6372 39.3222 44.9698 40.1547 43.2147C40.4824 43.1266 41.0694 43.1405 41.3965 43.2297C41.9427 44.5356 42.6897 45.8217 43.3635 47.0687C43.5462 47.4066 43.7219 47.7482 43.9029 48.0867C43.9737 48.2188 44.1048 48.3462 44.1502 48.4871C43.7607 48.4602 43.3657 48.4883 42.9756 48.4741C42.6913 48.3224 42.553 47.6669 42.3732 47.3916C42.1841 47.261 41.7327 47.3375 41.503 47.3352C40.7619 47.3271 39.9936 47.2678 39.2563 47.3444C38.9215 47.6002 38.8277 48.1453 38.5858 48.4842C38.3079 48.526 38.0107 48.4837 37.73 48.4916C37.6157 48.4948 37.5002 48.5422 37.4023 48.4701C37.4237 48.4395 37.4453 48.4089 37.4666 48.3783ZM39.69 46.2943C39.6358 46.4067 39.6645 46.3397 39.6113 46.4985C40.1081 46.6615 40.8027 46.5502 41.3241 46.5466C41.5111 46.5453 41.7816 46.6114 41.9543 46.5595C41.7578 46.0217 41.4072 45.4967 41.1526 44.9808C41.0547 44.7826 40.9713 44.5805 40.8663 44.3862C40.8352 44.3288 40.7662 44.1421 40.7522 44.1363C40.7091 44.1181 40.7226 44.2255 40.7079 44.27C40.4961 44.9758 40.0286 45.6426 39.69 46.2943Z" fill="#1E3759"/>
<path fill-rule="evenodd" clip-rule="evenodd" d="M40.4595 38.0473C40.966 37.9751 41.5799 37.9156 41.8759 37.4347C42.2477 36.8306 42.1174 35.9733 42.1146 35.2969C42.1095 34.067 42.1171 32.8368 42.1171 31.6069C42.1171 30.9885 42.2142 30.2516 42.0443 29.651C41.9209 29.2152 41.4606 28.9179 41.0563 28.7691C40.8287 28.6853 40.4546 28.6975 40.5513 28.3458C41.4222 27.8869 42.3572 27.5255 43.2364 27.0729C43.5171 26.9284 43.9988 26.5905 44.3117 26.7769C44.4153 27.0132 44.3661 27.2965 44.3687 27.55C44.3739 28.1093 44.373 28.6756 44.4136 29.233C44.6476 29.15 44.8699 28.628 45.0169 28.4341C45.4476 27.8651 45.9805 27.1579 46.652 26.8637C47.3313 26.566 48.1871 26.8174 48.7919 27.1738C48.9894 27.2902 49.3822 27.534 49.3456 27.8076C49.1355 28.4123 48.5632 29.2038 48.1076 29.65C47.8656 29.5997 47.6151 29.3464 47.4143 29.2109C46.987 28.9222 46.3341 28.7372 45.8307 28.9338C45.3694 29.1139 45.0485 29.5892 44.7814 29.9822C44.6833 30.1262 44.5344 30.2781 44.4748 30.4424C44.3259 30.8528 44.4224 31.4856 44.4225 31.9188C44.4231 32.9469 44.422 33.9749 44.4207 35.003C44.4198 35.6456 44.2668 36.5812 44.5788 37.1686C44.801 37.5872 45.1986 37.8293 45.6545 37.9228C45.7992 37.9526 46.2447 37.9023 46.324 37.9996C46.3188 38.1538 46.3909 38.445 46.3258 38.5781C45.2054 38.5904 44.0665 38.505 42.9397 38.5106C42.1354 38.5145 41.2961 38.6275 40.4954 38.5625C40.4841 38.3909 40.4774 38.2181 40.4595 38.0473Z" fill="#1C395A"/>
<path fill-rule="evenodd" clip-rule="evenodd" d="M44.2754 15.9369C44.46 15.9322 44.6226 15.9324 44.8022 15.9762C45.0896 17.0908 45.4757 18.3037 46.5571 18.8956C47.8117 19.5823 49.7091 19.2133 49.6845 17.4949C49.6665 16.2331 48.4177 15.6147 47.4706 15.0675C45.9068 14.1643 44.3729 13.0175 44.6226 10.9854C44.6662 10.6298 44.7772 10.2815 44.927 9.95699C45.168 9.43537 45.5599 9.00168 46.0273 8.67376C46.5848 8.28241 47.27 8.12296 47.9432 8.11539C48.6286 8.10782 49.2655 8.37881 49.9386 8.39665C50.3178 8.40692 50.6804 8.24566 51.0603 8.2271C51.184 9.41609 51.0481 10.6417 51.2367 11.8243C51.0948 11.8141 50.9308 11.8283 50.7882 11.8391C50.5992 11.6537 50.5083 11.237 50.3979 10.9928C50.1617 10.4719 49.8607 9.94924 49.4124 9.58312C48.4723 8.8152 46.7545 8.70493 46.386 10.1409C46.3348 10.3404 46.3078 10.5463 46.3452 10.7507C46.5408 11.8215 47.8253 12.358 48.6724 12.8296C49.9745 13.5542 51.4881 14.4524 51.6296 16.1037C51.6587 16.4416 51.6357 16.7888 51.5732 17.1216C51.5046 17.4863 51.3952 17.8344 51.2332 18.1684C50.9653 18.7207 50.5491 19.1796 50.037 19.5136C49.4503 19.8967 48.7378 20.0893 48.0425 20.1235C47.1818 20.166 46.4217 19.8617 45.5822 19.7597C45.2433 19.7185 44.9522 19.7882 44.6229 19.8127C44.4448 18.5354 44.4895 17.205 44.2754 15.9369Z" fill="#1C395A"/>
<path fill-rule="evenodd" clip-rule="evenodd" d="M46.3153 43.2745C46.6516 43.1899 47.0122 43.2304 47.3556 43.2383C47.5304 43.519 47.4013 44.1601 47.4016 44.4902C47.4027 45.5415 47.3844 46.5938 47.4154 47.6447C48.6571 47.5817 49.9154 47.6846 51.1592 47.6575C51.1736 47.9121 51.087 48.2592 51.1621 48.5002C49.563 48.4932 47.939 48.4476 46.3423 48.5287C46.1787 48.0529 46.3031 47.3354 46.3031 46.8323C46.3031 45.6477 46.2769 44.4587 46.3153 43.2745Z" fill="#1A365A"/>
<path fill-rule="evenodd" clip-rule="evenodd" d="M49.5777 27.392C49.6003 27.2695 49.5965 27.2101 49.6739 27.1068C50.0791 26.9755 50.5973 27.0456 51.0224 27.0389C51.9805 27.0239 52.9398 27.0162 53.8978 27.0342C54.2259 27.0403 54.5544 27.0485 54.8826 27.043C55.0139 27.0409 55.2012 27.0052 55.3072 27.0863C55.3061 27.2571 55.3372 27.4347 55.3147 27.6047C54.8344 27.6155 53.9991 27.6756 53.8547 28.26C53.6929 28.9153 54.2421 29.7167 54.4777 30.303C55.1249 31.912 55.7734 33.5222 56.404 35.1354C56.5643 34.6206 56.8216 34.1262 57.0224 33.6249C57.4668 32.5156 57.8952 31.4015 58.3165 30.283C58.5383 29.6938 59.0028 28.7791 58.6287 28.1726C58.4201 27.8346 58.0184 27.6335 57.6338 27.5924C57.4883 27.5769 57.245 27.6274 57.1164 27.5641C57.1544 27.4011 57.1431 27.2263 57.127 27.0607C57.9873 26.9659 58.8699 27.0272 59.7342 27.0257C60.4447 27.0245 61.1935 26.9463 61.8999 27.0151C61.9247 27.1895 61.9186 27.3376 61.8586 27.5059C61.4798 27.7457 61.0509 27.7247 60.7035 28.0706C59.8358 28.9345 59.4443 30.3697 58.9719 31.4727C57.9584 33.8395 56.9766 36.2226 56.0353 38.6171C55.8 38.6252 55.5647 38.6013 55.3302 38.6337C54.9304 37.8811 54.6678 37.0101 54.3463 36.2193C53.556 34.2752 52.7657 32.323 51.9295 30.3985C51.414 29.212 51.1054 27.7346 49.5795 27.5758C49.5649 27.4632 49.5676 27.5243 49.5777 27.392Z" fill="#1A385A"/>
<path fill-rule="evenodd" clip-rule="evenodd" d="M52.6279 9.64908C52.8876 9.02477 53.7279 8.62603 54.1981 8.15793C54.9943 7.36515 55.733 6.19976 56.0917 5.13221C56.2763 5.13491 56.462 5.13059 56.6468 5.125C56.6045 6.24697 56.6907 7.37416 56.6508 8.49685C56.9272 8.59541 57.371 8.49595 57.6683 8.49558C58.6037 8.49504 59.656 8.37018 60.5778 8.52784C60.6417 8.61649 60.5646 8.74189 60.51 8.82856C60.3689 9.05216 60.1397 9.48693 59.8837 9.58512C59.5698 9.70584 59.1646 9.66116 58.8341 9.67035C58.1204 9.69017 57.3969 9.70872 56.6835 9.67954C56.5786 11.9155 56.6265 14.1816 56.6486 16.42C56.6571 17.2836 56.8071 18.3643 57.8315 18.5632C58.3504 18.6639 58.8715 18.5131 59.2657 18.167C59.4715 17.9863 59.6528 17.6928 59.9114 17.5908C60.054 17.7052 60.1578 17.8922 60.1314 18.0798C60.0651 18.39 59.7032 18.6911 59.5062 18.9308C59.1393 19.3771 58.712 19.7484 58.1669 19.9603C56.9858 20.4194 55.3447 20.0846 54.727 18.8951C54.2469 17.9706 54.3576 16.8479 54.357 15.8405C54.3563 14.4676 54.3576 13.0946 54.3558 11.7218C54.3549 11.0565 54.4195 10.346 54.3477 9.68692C53.7778 9.6844 53.2102 9.75143 52.6407 9.74152C52.6364 9.71071 52.6321 9.67989 52.6279 9.64908Z" fill="#1C3A5B"/>
<path fill-rule="evenodd" clip-rule="evenodd" d="M53.4422 45.0523C53.5009 44.4757 53.4612 43.8691 53.456 43.2896C53.7773 43.1478 54.2276 43.2408 54.5717 43.2356C54.6858 44.9885 54.4625 46.7622 54.5814 48.5146C54.2138 48.504 53.8425 48.509 53.4749 48.5096C53.398 47.3739 53.4011 46.19 53.4422 45.0523Z" fill="#1C385B"/>
<path fill-rule="evenodd" clip-rule="evenodd" d="M57.2243 47.0378C57.2162 46.9941 57.208 46.9507 57.1997 46.9071C57.47 46.7839 58.0554 46.6518 58.3418 46.7615C58.4703 47.9086 60.1365 47.9525 60.9887 47.7249C61.358 47.6262 61.9234 47.3833 61.9281 46.921C61.9335 46.399 61.0952 46.3549 60.7445 46.3295C59.9086 46.2686 58.8954 46.2551 58.1328 45.8722C57.5237 45.5662 57.2035 44.7904 57.5047 44.1479C58.0252 43.0378 59.5844 43.0466 60.6195 43.0987C60.9406 43.1149 61.2522 43.1544 61.5595 43.2522C62.1878 43.4524 62.9082 44.0421 62.7701 44.7958C62.4455 44.8072 62.1213 44.776 61.8013 44.8472C61.4302 43.8628 60.3684 43.8825 59.4789 43.9845C59.0851 44.0297 58.3724 44.1976 58.4789 44.7437C58.5825 45.2754 59.2262 45.3127 59.6566 45.3623C60.4953 45.4587 61.3799 45.4282 62.1698 45.7562C62.8346 46.0318 63.1922 46.6088 62.9677 47.3325C62.7891 47.9078 62.2557 48.2197 61.7294 48.4186C61.4359 48.5296 61.1191 48.5763 60.8089 48.6129C59.5942 48.7559 57.4251 48.6303 57.2243 47.0378Z" fill="#1D385A"/>
<path fill-rule="evenodd" clip-rule="evenodd" d="M60.6256 13.7902C60.7465 12.7502 60.8763 11.8109 61.3879 10.8738C62.5555 8.73454 65.1029 7.57889 67.4489 8.34104C68.8362 8.79185 69.8048 9.94624 70.2329 11.3179C70.3455 11.6794 70.5657 12.4406 70.3223 12.7824C70.1806 12.9269 69.9343 12.9129 69.7465 12.9159C69.2824 12.9233 68.8179 12.9212 68.3538 12.9239C66.5137 12.9341 64.6571 12.8213 62.8193 12.8994C62.7457 13.3123 62.806 13.7757 62.8589 14.1896C63.1698 16.6269 65.2737 18.9007 67.8852 18.1986C68.2726 18.0944 68.6212 17.8766 68.9438 17.6454C69.3729 17.3379 69.6802 16.9633 69.966 16.524C70.1396 16.5463 70.3183 16.593 70.4769 16.6685C70.3595 17.0741 70.0944 17.4373 69.8704 17.7914C68.301 20.2719 65.1596 20.7652 62.8078 19.0913C61.1948 17.9431 60.5162 15.6981 60.6256 13.7902ZM62.9557 11.8977C62.9485 11.9356 62.9411 11.9736 62.9339 12.0116C63.1988 12.1695 63.8738 12.0657 64.189 12.0709C64.9789 12.0837 65.769 12.0866 66.559 12.0857C66.9433 12.0851 67.3606 12.1327 67.7388 12.0549C67.86 11.9572 67.7995 11.5084 67.7893 11.3673C67.7381 10.6632 67.5111 9.9084 66.9309 9.45904C66.6922 9.27418 66.4225 9.13886 66.1274 9.07436C64.3381 8.68283 63.264 10.3643 62.9557 11.8977Z" fill="#1C3859"/>
<path fill-rule="evenodd" clip-rule="evenodd" d="M61.7878 31.9856C61.9895 30.689 62.4711 29.4553 63.3474 28.4595C64.8545 26.7471 67.5966 26.1808 69.5868 27.3644C70.6213 27.9797 71.3947 29.0294 71.5453 30.246C71.5885 30.596 71.6616 31.1924 71.3612 31.4459C70.7316 31.6378 69.9051 31.4964 69.2526 31.4946C68.1451 31.4917 67.0376 31.5029 65.9303 31.5038C65.3101 31.5045 64.6718 31.4504 64.0552 31.5187C63.87 31.9506 64.048 32.7149 64.128 33.1674C64.517 35.3722 66.3488 37.2525 68.6952 36.9614C69.4722 36.865 70.0962 36.4534 70.6472 35.9134C70.8631 35.7017 71.0555 35.3073 71.3204 35.1745C71.4486 35.2234 71.5968 35.2684 71.6649 35.3947C71.5262 35.8102 71.2326 36.2122 70.982 36.5704C70.6233 37.0832 70.1871 37.6219 69.6574 37.9667C67.7347 39.2184 65.2952 38.8738 63.5922 37.4122C62.0953 36.1275 61.561 33.8881 61.7878 31.9856ZM64.2122 30.3591C64.186 30.4746 64.1625 30.576 64.1707 30.6951C65.0808 30.7286 66.0058 30.6737 66.9189 30.6724C67.5553 30.6715 68.2317 30.7506 68.8614 30.6499C69.1243 30.42 69.0713 29.9663 69.0268 29.6562C68.9088 28.8364 68.5135 28.1208 67.7146 27.8087C67.4597 27.7092 67.1908 27.6682 66.9185 27.6642C65.3033 27.6408 64.6637 29.0552 64.2122 30.3591Z" fill="#1B3858"/>
<path fill-rule="evenodd" clip-rule="evenodd" d="M64.9038 43.2829C65.2354 43.1626 65.6689 43.2438 66.0203 43.2332C67.0392 43.2022 68.0593 43.2 69.0792 43.1964C69.4064 43.1954 69.7337 43.1966 70.0609 43.1979C70.1809 43.1984 70.3811 43.1611 70.4814 43.2217C70.4772 43.4883 70.4223 43.819 70.4718 44.0797C69.7586 44.1108 69.0373 44.0919 68.3236 44.0921C68.177 44.5206 68.2758 45.1173 68.2778 45.5697C68.2819 46.5382 68.2436 47.5153 68.2817 48.482C68.2266 48.5151 68.0577 48.4928 67.9947 48.4938C67.7364 48.4987 67.4697 48.5011 67.2123 48.4794C67.1969 47.0277 67.1708 45.5705 67.182 44.1199C66.4535 44.0247 65.6664 44.2308 64.9509 44.0925C64.9299 43.8229 64.9178 43.5537 64.9038 43.2829Z" fill="#1E395A"/>
<path fill-rule="evenodd" clip-rule="evenodd" d="M71.2767 9.61791C72.0271 9.019 73.1186 8.62117 74.0017 8.25577C74.2478 8.15379 74.762 7.84694 75.0063 8.0509C75.2935 8.74567 75.0984 9.73052 75.1521 10.4716C75.2121 10.5687 75.5408 9.9543 75.6124 9.86313C75.9672 9.41142 76.339 8.93449 76.7749 8.55828C77.5341 7.90298 78.4285 7.92568 79.2747 8.40819C79.5193 8.54783 79.8781 8.73468 80.0042 8.99828C79.9292 9.22062 79.7801 9.40152 79.6655 9.60458C79.4174 10.0437 79.1775 10.5485 78.8106 10.9011C78.5309 11.026 78.1147 10.5586 77.8949 10.424C77.2634 10.0372 76.5362 10.0166 76.0117 10.582C75.7247 10.8914 75.306 11.3826 75.1871 11.7943C75.0614 12.2303 75.157 12.7989 75.1566 13.2501C75.1559 14.2643 75.1555 15.2787 75.1501 16.293C75.1465 16.9508 74.9772 17.9142 75.3321 18.5046C75.7227 19.1551 76.5225 19.2704 77.214 19.2614C77.2307 19.4372 77.2445 19.6679 77.2977 19.8345C75.933 19.8389 74.5684 19.8367 73.2037 19.8338C72.576 19.8324 71.9104 19.7634 71.2869 19.8246C71.2679 19.6585 71.2817 19.4942 71.2754 19.3279C71.8459 19.2704 72.4853 19.1965 72.7622 18.6136C73.0306 18.049 72.9041 17.26 72.9027 16.6522C72.8996 15.3312 72.8919 14.0101 72.8905 12.6889C72.8898 12.0898 73.0484 11.2166 72.7802 10.6662C72.4539 9.99664 71.783 10.0905 71.2593 9.73574C71.265 9.69647 71.2709 9.65719 71.2767 9.61791Z" fill="#1B385A"/>
<path fill-rule="evenodd" clip-rule="evenodd" d="M72.467 46.7377C72.8097 46.7043 73.1531 46.7202 73.4949 46.6921C73.5317 46.8436 73.5161 47.0164 73.5942 47.1562C74.0014 47.8861 75.1986 47.8773 75.8991 47.7775C76.3269 47.7166 77.1071 47.5103 77.0671 46.9436C77.0251 46.3488 76.1924 46.3225 75.7606 46.2919C74.6479 46.2135 72.8418 46.3025 72.5936 44.859C72.5656 44.6963 72.5762 44.5388 72.6058 44.3763C72.7583 43.5401 73.7318 43.1957 74.4626 43.1134C75.5217 42.9939 77.1212 42.9808 77.7828 44.0033C77.9391 44.2449 77.9551 44.5179 78.0111 44.7919C77.692 44.7836 77.2449 44.9361 76.9484 44.8764C76.7239 43.853 75.4504 43.8846 74.6321 43.9671C74.198 44.0107 73.5762 44.2379 73.6852 44.7923C73.7819 45.2835 74.4382 45.315 74.8301 45.355C75.9991 45.4743 78.248 45.32 78.2074 47.0175C78.2017 47.2551 78.1401 47.482 78.0117 47.6836C77.751 48.0928 77.2523 48.3585 76.8015 48.4969C75.8161 48.7994 74.6307 48.7794 73.6551 48.4458C73.1342 48.2676 72.6931 47.8753 72.5113 47.3465C72.4526 47.1762 72.3734 46.8995 72.467 46.7377Z" fill="#1D3A5B"/>
<path fill-rule="evenodd" clip-rule="evenodd" d="M72.5034 38.0261C73.078 37.9344 73.6594 37.942 74.0222 37.3994C74.4181 36.807 74.3073 35.9663 74.3065 35.2903C74.3051 33.9843 74.3374 32.6781 74.3189 31.3723C74.311 30.8186 74.398 30.1201 74.2058 29.5925C74.0693 29.2177 73.6775 28.9046 73.298 28.7994C73.0173 28.7215 72.6398 28.8032 72.6223 28.4381C73.5028 27.8954 74.5224 27.4933 75.4661 27.074C75.7396 26.9524 76.2368 26.6497 76.5265 26.8351C76.6625 27.4607 76.5881 28.1808 76.608 28.8201C76.8942 28.7021 77.174 28.3124 77.4105 28.1023C77.9926 27.5855 78.6665 27.0807 79.427 26.87C79.8239 26.7599 80.2485 26.7317 80.658 26.7617C80.9799 26.7854 81.285 26.8455 81.5861 26.963C83.6088 27.7529 83.4127 30.1129 83.4032 31.8838C83.4008 32.3325 83.3985 32.7809 83.3974 33.2296C83.3962 33.8002 83.3958 34.3707 83.3953 34.9413C83.3945 35.6712 83.2395 36.609 83.591 37.2762C83.7624 37.6014 84.0981 37.8663 84.4562 37.9474C84.6809 37.9984 84.932 37.9625 85.1427 38.056C85.1436 38.216 85.1472 38.3702 85.14 38.5306C83.7424 38.5877 82.3275 38.5088 80.9273 38.5286C80.4818 38.5349 80.0188 38.4901 79.5773 38.5452C79.5603 38.3895 79.5656 38.2392 79.5687 38.0832C79.6219 37.9702 79.8823 37.9623 80.0032 37.9394C80.2609 37.8908 80.5021 37.78 80.6812 37.5836C81.2592 36.9501 81.0584 35.7816 81.0521 34.9937C81.0435 33.9045 81.0494 32.8155 81.0496 31.7264C81.0496 30.9001 81.1766 29.9246 80.7351 29.1877C80.6298 29.0118 80.4973 28.8549 80.3385 28.7255C79.0882 27.707 77.4524 28.7976 76.6928 29.8981C76.571 30.0745 76.6384 30.4091 76.6396 30.6168C76.6431 31.1539 76.64 31.691 76.6398 32.2282C76.6391 33.3903 76.6283 34.5525 76.6299 35.7146C76.6307 36.2267 76.5577 36.8784 76.8397 37.3342C77.1702 37.8684 77.7776 37.967 78.352 37.974C78.3691 38.1313 78.3766 38.398 78.2818 38.5317C76.8367 38.4594 75.3695 38.5077 73.9225 38.5192C73.5816 38.5219 73.2398 38.5344 72.8993 38.5308C72.7888 38.5297 72.5907 38.5546 72.5201 38.4535C72.4605 38.3684 72.5027 38.1077 72.5034 38.0261Z" fill="#1B3859"/>
<path fill-rule="evenodd" clip-rule="evenodd" d="M80.552 49.5439C80.7638 49.2655 80.9881 49.0531 81.1063 48.7144C81.0045 48.7172 80.8735 48.7228 80.7954 48.6563C80.7961 48.2457 80.8225 47.8284 80.7934 47.4187C81.1735 47.4241 81.569 47.4243 81.9487 47.396C82.0837 48.5217 81.9471 49.6241 80.7311 49.9938C80.5977 49.9138 80.5757 49.8025 80.5352 49.6587C80.5407 49.6203 80.5463 49.5821 80.552 49.5439Z" fill="#1F3A5C"/>
<path fill-rule="evenodd" clip-rule="evenodd" d="M83.0587 18.9858C84.1286 18.7946 85.1662 18.5043 86.2523 18.3977C86.5747 18.366 86.9048 18.3171 87.2294 18.3265C87.3436 18.3297 87.5473 18.4222 87.6495 18.358C87.3353 17.9683 86.8942 17.6885 86.588 17.2678C85.5452 15.8359 85.0613 14.0458 85.1978 12.2866C85.5434 12.3003 85.8011 12.6329 86.0181 12.8718C86.3753 13.2649 86.812 13.7237 87.2721 13.9936C87.27 13.8201 87.1591 13.6547 87.1169 13.4893C87.0111 13.0745 86.9061 12.6648 86.8472 12.2395C86.6191 10.594 86.796 8.68049 87.6299 7.21439C87.8774 7.25907 88.0308 7.52898 88.1588 7.73384C88.3999 8.11852 88.601 8.5214 88.793 8.93238C88.8719 9.10103 88.8972 9.31832 89.0136 9.46373C89.2412 8.52374 89.6309 7.62591 89.9125 6.70052C90.303 5.41729 90.5528 4.05983 90.6365 2.72093C90.759 2.57805 90.9372 2.83535 91.0331 2.93679C91.348 3.26921 91.6337 3.63696 91.8703 4.02866C92.4612 5.00703 92.94 6.0908 93.1697 7.21583C93.2992 7.8497 93.2306 8.52086 93.354 9.14265C93.5185 9.07743 93.6699 8.69869 93.7621 8.54788C94.1371 7.93384 94.4453 7.29691 94.5567 6.57944C94.589 6.37152 94.6238 6.16359 94.6616 5.95657C94.6693 5.91405 94.6998 5.7436 94.7142 5.73837C94.7654 5.71963 94.809 5.79225 94.8564 5.81909C96.6304 7.49889 96.2674 10.2767 96.0359 12.4424C96.1696 12.5983 96.4776 12.0134 96.573 11.8905C97.0609 11.2615 97.4017 10.485 97.6285 9.72643C97.814 9.76192 97.9274 9.99183 98.015 10.143C98.2255 10.5066 98.4208 10.8601 98.549 11.2628C99.0947 12.9761 98.7548 15.1537 97.767 16.6526C97.4911 17.0712 97.1876 17.4678 96.8406 17.8297C96.742 17.9326 96.4161 18.153 96.3897 18.2786C97.7501 18.4872 99.1927 18.5467 100.512 18.9926C100.507 19.2557 100.496 19.5153 100.479 19.7778C94.668 19.8394 88.8338 19.8544 83.0224 19.7661C83.0339 19.522 83.04 19.2582 83.0005 19.0173C83.0199 19.0067 83.0393 18.9962 83.0587 18.9858ZM89.0919 15.3213C89.0231 16.2948 89.1779 17.3328 89.9059 18.0402C90.1428 18.2705 90.3562 18.315 90.666 18.3791C90.7396 18.3944 90.9173 18.4441 90.9796 18.3827C90.8474 18.1816 90.6502 18.0168 90.5081 17.8187C90.1967 17.3842 90.0532 16.8092 90.0512 16.2781C90.0501 15.946 90.1085 15.5184 90.4413 15.3581C90.7664 15.4063 90.9408 16.0171 91.0981 16.269C91.5303 16.9607 92.0993 17.5503 92.7464 18.042C92.9379 18.1874 93.238 18.5101 93.4968 18.4991C93.6712 18.4919 93.9121 18.2692 94.0349 18.1607C95.3491 17 95.5847 14.964 94.9175 13.4273C94.6872 12.8968 94.3837 12.4042 94.1179 11.8923C94.0721 11.8041 93.8765 11.4111 93.7879 11.4949C93.8007 12.5786 93.4734 13.835 92.8276 14.7071C92.7494 14.7301 92.5849 14.5811 92.5249 14.5359C92.2841 14.3541 92.0903 14.1296 91.9186 13.8826C91.4114 13.153 91.1825 12.2277 91.0146 11.3669C90.965 11.1134 90.9025 10.8385 90.8927 10.5806C90.8878 10.4504 90.9268 10.2952 90.8215 10.1978C90.6349 10.5682 90.5263 10.992 90.3612 11.376C89.9824 12.2576 89.5476 13.1212 89.2855 14.0487C89.1673 14.4669 89.1542 14.895 89.0919 15.3213Z" fill="#DA565E"/>
<path fill-rule="evenodd" clip-rule="evenodd" d="M85.1797 28.2969C85.3487 27.9911 85.6808 27.8082 85.9515 27.5987C86.3576 27.2841 86.7421 26.9542 87.0873 26.5717C87.8585 25.7176 88.2291 24.7193 88.7688 23.7337C88.9493 23.6069 89.1997 23.6894 89.4093 23.6966C89.3879 24.5297 89.3971 25.3679 89.4073 26.2018C89.41 26.4093 89.3089 26.9529 89.4324 27.1025C90.381 26.9989 91.3807 27.0805 92.334 27.0875C92.6083 27.0895 93.1891 27 93.3946 27.211C93.3768 27.4155 93.197 27.6097 93.0695 27.7609C92.4159 28.5345 91.2725 28.3158 90.3477 28.2958C90.1178 28.2908 89.569 28.1582 89.3978 28.3001C89.3543 30.0313 89.3922 31.7673 89.3985 33.4992C89.4016 34.3343 89.2485 35.3894 89.5149 36.1899C89.8206 37.1083 90.8814 37.4627 91.7289 37.0633C92.1397 36.8696 92.3507 36.5269 92.6954 36.2611C92.8236 36.2889 92.9393 36.3613 93.032 36.4539C93.0128 36.9009 92.5287 37.4224 92.2379 37.7301C91.0372 39.0002 88.566 39.2937 87.5295 37.6382C86.9154 36.6573 87.0131 35.4202 87.0149 34.3092C87.0183 32.324 86.9386 30.3158 87.028 28.3333C86.4264 28.2279 85.8062 28.4021 85.2066 28.3837C85.1976 28.3547 85.1887 28.3259 85.1797 28.2969Z" fill="#1C3A5A"/>
<path fill-rule="evenodd" clip-rule="evenodd" d="M89.4188 43.1896C89.7611 43.1833 90.1927 43.1213 90.5237 43.2198C90.3858 44.6715 90.5217 46.1931 90.519 47.6517C90.7317 47.7445 91.1114 47.6681 91.3454 47.6708C92.0037 47.6783 92.6621 47.6798 93.3204 47.6825C93.5995 47.6836 93.9795 47.6113 94.2421 47.6998C94.2428 47.8899 94.3021 48.3542 94.192 48.5127C93.0436 48.4376 91.8666 48.507 90.7152 48.5005C90.4163 48.4989 90.1173 48.4981 89.8184 48.4971C89.6916 48.4967 89.5226 48.547 89.4121 48.4794C89.4128 46.7183 89.4602 44.9497 89.4188 43.1896Z" fill="#1C395B"/>
<path fill-rule="evenodd" clip-rule="evenodd" d="M93.8519 38.2012C93.8538 38.1617 93.856 38.1222 93.8581 38.0828C94.4015 37.8873 94.9996 37.906 95.3096 37.319C95.5978 36.7734 95.4938 35.9659 95.4933 35.3698C95.492 34.0663 95.4983 32.7628 95.5012 31.4594C95.5026 30.8767 95.6501 30.0004 95.3625 29.4733C95.047 28.8948 94.4859 28.8171 93.919 28.6312C93.7834 28.338 94.5076 28.1343 94.7142 28.0395C95.3967 27.7262 96.0693 27.3937 96.7489 27.0741C97.0595 26.9282 97.3954 26.7035 97.749 26.7655C97.8681 26.9172 97.8007 27.2091 97.7998 27.3964C97.7971 27.9591 97.8235 28.5222 97.8246 29.0851C97.8279 30.9007 97.8162 32.7158 97.8182 34.5295C97.819 35.3052 97.6621 36.3487 97.967 37.075C98.2788 37.8176 98.9233 37.9285 99.6387 37.974C99.671 38.1527 99.6466 38.3392 99.6432 38.5197C99.1338 38.65 98.4276 38.5103 97.8999 38.5062C96.5587 38.4956 95.1883 38.4327 93.8504 38.5266C93.8348 38.4177 93.8436 38.3105 93.8519 38.2012Z" fill="#1D3959"/>
<path fill-rule="evenodd" clip-rule="evenodd" d="M94.8351 23.2457C94.8739 23.0179 94.9614 22.7825 95.0877 22.5889C96.0696 21.0852 98.2468 22.1196 98.0063 23.7967C97.7166 25.8156 94.4917 25.2622 94.8351 23.2457Z" fill="#1C3A5D"/>
<path fill-rule="evenodd" clip-rule="evenodd" d="M96.5087 43.1911C96.8601 43.1927 97.2139 43.1954 97.565 43.1846C97.7177 43.4628 97.585 44.0777 97.5853 44.4004C97.5864 45.4779 97.5291 46.5732 97.6103 47.6479C98.8349 47.5959 100.138 47.6144 101.364 47.6851C101.344 47.9243 101.29 48.2811 101.35 48.5076C99.7534 48.4739 98.1452 48.4832 96.549 48.5225C96.4617 48.4274 96.4976 48.2225 96.4973 48.0946C96.4962 47.764 96.494 47.4335 96.4937 47.1029C96.4924 45.7993 96.5226 44.4941 96.5087 43.1911Z" fill="#1B3859"/>
<path fill-rule="evenodd" clip-rule="evenodd" d="M100.408 32.7994C100.449 31.5473 100.735 30.2437 101.444 29.1924C103.335 26.387 107.551 25.8476 109.946 28.3166C111.093 29.4987 111.549 31.2116 111.488 32.8287C111.43 34.3567 110.95 35.7869 109.897 36.917C107.934 39.0227 104.196 39.5537 102.064 37.3752C101.504 36.8038 101.121 36.1017 100.824 35.3656C100.502 34.5673 100.38 33.6579 100.408 32.7994ZM102.834 31.4498C102.713 33.2776 103.045 35.5092 104.374 36.8692C104.632 37.133 104.923 37.3604 105.261 37.5116C105.527 37.6303 105.811 37.7051 106.102 37.7215C108.164 37.8371 108.811 35.6055 108.93 33.9449C109.065 32.059 108.784 29.8005 107.35 28.4239C107.1 28.1839 106.808 27.9787 106.484 27.8515C106.218 27.7468 105.933 27.6944 105.647 27.6966C103.694 27.7119 102.942 29.801 102.834 31.4498Z" fill="#1D395A"/>
<path fill-rule="evenodd" clip-rule="evenodd" d="M103.37 45.3194C103.522 44.5441 103.869 43.8762 104.555 43.4441C106.261 42.3699 109.279 42.989 109.715 45.1551C109.313 45.1417 108.918 45.0825 108.514 45.096C108.409 44.9572 108.368 44.7682 108.268 44.6207C108.06 44.3113 107.723 44.114 107.375 43.9987C106.989 43.8704 106.584 43.8268 106.18 43.8702C105.682 43.9237 105.176 44.1144 104.838 44.4967C104.203 45.2154 104.331 46.5041 104.955 47.1895C105.612 47.9111 106.829 47.9275 107.669 47.5588C108.101 47.3691 108.3 47.0248 108.499 46.6212C108.832 46.514 109.351 46.6082 109.702 46.6143C109.685 46.8123 109.568 47.0237 109.474 47.1952C108.935 48.1761 108.03 48.4611 106.993 48.6233C105.907 48.793 104.456 48.5055 103.807 47.539C103.377 46.8981 103.281 46.0723 103.37 45.3194Z" fill="#1B375A"/>
<path fill-rule="evenodd" clip-rule="evenodd" d="M104.414 14.9315C105.239 14.1773 106.724 13.9421 107.769 14.2506C108.402 14.4378 108.937 14.825 109.619 14.8468C110.615 14.8787 111.359 14.1313 112.341 14.0769C112.756 14.0538 113.206 14.0879 113.598 14.2354C114.144 14.4407 114.631 14.7583 115.228 14.7945C116.219 14.8547 117.057 14.1268 118.045 14.0749C119.003 14.0246 119.699 14.6275 120.6 14.792C121.683 14.9895 122.524 14.2697 123.563 14.1421C123.961 14.0933 124.587 14.1108 124.881 14.4293C124.895 14.5399 124.935 14.8174 124.843 14.9026C124.298 14.8763 123.871 14.6972 123.307 14.8203C122.496 14.9974 121.824 15.4385 120.961 15.4176C120.527 15.4071 120.106 15.3282 119.703 15.1686C119.24 14.9855 118.798 14.7263 118.288 14.7174C117.268 14.6998 116.426 15.3895 115.418 15.419C114.401 15.4489 113.605 14.7446 112.613 14.7174C111.628 14.6902 110.813 15.3571 109.835 15.4304C108.774 15.51 107.936 14.81 106.915 14.7524C106.044 14.703 105.356 15.2313 104.528 15.2938C104.437 15.1756 104.422 15.0807 104.414 14.9315Z" fill="#183457"/>
<path fill-rule="evenodd" clip-rule="evenodd" d="M104.426 17.1742C105.127 16.3353 106.687 16.1192 107.669 16.4237C108.326 16.6272 108.864 17.0527 109.576 17.0726C110.583 17.1005 111.363 16.3551 112.358 16.2879C113.427 16.2156 114.181 16.9754 115.206 17.0464C116.282 17.121 117.146 16.3236 118.228 16.2785C119.155 16.24 119.816 16.8864 120.689 17.0471C121.79 17.25 122.589 16.4513 123.646 16.35C124.05 16.3113 124.565 16.265 124.859 16.5962C124.915 16.7135 124.948 16.9162 124.863 17.0271C124.33 17.0008 123.874 16.861 123.332 16.9904C122.533 17.1807 121.912 17.6675 121.055 17.672C120.044 17.6772 119.263 16.8861 118.289 16.8841C117.23 16.8821 116.382 17.6309 115.32 17.6556C114.325 17.6787 113.593 16.8972 112.629 16.8864C111.612 16.8749 110.827 17.6016 109.823 17.6722C108.754 17.7473 107.982 16.9877 106.968 16.9165C106.489 16.883 106.031 16.9697 105.585 17.1453C105.25 17.2771 104.91 17.5156 104.546 17.5389C104.474 17.4185 104.454 17.3117 104.426 17.1742Z" fill="#133053"/>
<path fill-rule="evenodd" clip-rule="evenodd" d="M104.425 19.4423C105.313 18.7724 106.475 18.3852 107.581 18.6717C108.337 18.8672 108.903 19.3677 109.72 19.3492C110.637 19.3283 111.342 18.6571 112.255 18.5933C112.695 18.5627 113.183 18.5764 113.595 18.7497C114.12 18.9699 114.547 19.2893 115.133 19.3328C116.183 19.4106 117.005 18.6256 118.05 18.573C118.485 18.5512 118.918 18.5892 119.321 18.7612C119.756 18.9466 120.127 19.2328 120.598 19.3247C121.747 19.5492 122.597 18.6566 123.701 18.6063C124.068 18.5897 124.575 18.5488 124.854 18.8317C124.893 19.0191 124.878 19.1956 124.88 19.385C124.709 19.3767 124.531 19.2861 124.359 19.2596C124.001 19.2047 123.58 19.2243 123.229 19.3173C122.941 19.3937 122.679 19.5753 122.405 19.6913C121.923 19.8956 121.425 20.0108 120.899 19.9928C119.948 19.9603 119.256 19.247 118.332 19.202C117.227 19.1481 116.388 19.9639 115.279 19.9846C114.306 20.0028 113.624 19.2331 112.693 19.2101C111.633 19.1836 110.872 19.9346 109.84 20.0097C108.775 20.0873 108.042 19.3306 107.031 19.2526C106.601 19.2193 106.156 19.2542 105.749 19.4059C105.351 19.5542 104.979 19.8391 104.55 19.8756C104.457 19.7439 104.425 19.6027 104.425 19.4423Z" fill="#173054"/>
<path fill-rule="evenodd" clip-rule="evenodd" d="M104.612 12.5317C105.042 12.2427 105.398 11.7908 105.8 11.4566C107.074 10.3998 108.307 9.29712 109.554 8.20939C110.611 7.2876 111.642 6.32996 112.715 5.42691C113.415 4.83701 114.199 4.25107 114.825 3.58495C114.97 3.57306 115.114 3.78567 115.215 3.87648C115.551 4.17701 115.885 4.48584 116.231 4.77358C117.12 5.51231 117.947 6.33104 118.797 7.11319C119.323 7.59679 119.889 8.05048 120.381 8.56921C120.377 7.93895 120.404 7.30707 120.402 6.67608C120.401 6.2642 120.353 5.81321 120.465 5.41357C120.751 5.24601 121.39 5.3588 121.719 5.36528C121.847 5.36781 121.998 5.36421 122.087 5.46565C122.113 6.46023 122.1 7.45877 122.098 8.45444C122.097 8.91893 122.023 9.45767 122.106 9.91298C122.621 10.6157 123.468 11.198 124.125 11.7675C124.407 12.0122 124.755 12.2353 124.94 12.5681C124.56 12.6046 123.902 12.6477 123.539 12.5124C123.303 12.4243 123.105 12.2097 122.917 12.0492C122.495 11.691 122.079 11.3266 121.656 10.9706C120.08 9.64361 118.607 8.19228 117.06 6.83103C116.528 6.36293 115.996 5.89393 115.465 5.42421C115.274 5.25538 115.038 4.97953 114.774 4.96674C114.496 5.10565 114.283 5.33429 114.049 5.53537C113.579 5.93951 113.114 6.34978 112.643 6.75266C111.117 8.05768 109.646 9.43532 108.101 10.716C107.616 11.1182 107.129 11.5265 106.657 11.9436C106.438 12.1367 106.189 12.4448 105.917 12.5583C105.521 12.7238 104.987 12.607 104.575 12.5983C104.587 12.576 104.6 12.5538 104.612 12.5317Z" fill="#1B3959"/>
<path fill-rule="evenodd" clip-rule="evenodd" d="M107.188 12.4387C107.569 11.9843 108.05 11.6106 108.487 11.2124C109.336 10.4382 110.193 9.67043 111.066 8.92431C112.291 7.85928 113.512 6.79515 114.717 5.70867C114.903 5.693 115.132 5.95786 115.267 6.07642C115.685 6.44344 116.103 6.80938 116.515 7.18325C117.939 8.47459 119.349 9.7852 120.783 11.0652C121.16 11.4023 121.55 11.7252 121.925 12.0652C122.055 12.1832 122.286 12.3196 122.328 12.494C122.071 12.7493 121.793 12.6217 121.536 12.4553C121.095 12.17 120.7 11.7947 120.31 11.4457C118.481 9.81078 116.569 8.25909 114.791 6.56741C114.065 7.01497 113.439 7.75333 112.799 8.31855C111.703 9.28647 110.553 10.1899 109.458 11.1598C109.073 11.5012 108.676 11.829 108.289 12.1686C108.146 12.294 107.969 12.5059 107.775 12.5466C107.571 12.5893 107.371 12.5205 107.188 12.4387Z" fill="#183657"/>
<path fill-rule="evenodd" clip-rule="evenodd" d="M112.495 38.0464C113.073 37.963 113.669 37.8816 113.979 37.3115C114.308 36.7059 114.176 35.8737 114.176 35.2115C114.175 33.9847 114.18 32.7577 114.189 31.5307C114.193 30.9411 114.296 30.215 114.106 29.6492C113.975 29.2581 113.62 28.9887 113.239 28.8671C112.953 28.7756 112.556 28.8464 112.57 28.4379C113.445 27.903 114.424 27.512 115.36 27.099C115.66 26.9666 116.123 26.6799 116.44 26.8832C116.495 27.4972 116.469 28.1594 116.449 28.7768C116.551 28.8224 116.76 28.5727 116.833 28.5033C117.212 28.1448 117.613 27.8174 118.043 27.5215C119.432 26.5653 121.463 26.3558 122.576 27.8525C123.273 28.7884 123.22 29.8687 123.216 30.9781C123.212 32.2993 123.218 33.6205 123.22 34.9418C123.221 35.8722 122.971 37.352 124.014 37.8201C124.317 37.9558 124.636 37.9455 124.959 37.9745C125.004 38.1745 124.935 38.3772 124.956 38.572C123.802 38.5724 122.648 38.5207 121.492 38.5298C120.8 38.5353 120.044 38.6547 119.36 38.552C119.36 38.3945 119.315 38.1724 119.409 38.0419C120.023 37.9999 120.622 37.7144 120.802 37.0805C121.031 36.2764 120.876 35.2958 120.876 34.4677C120.876 32.971 121.053 31.3604 120.828 29.8781C120.715 29.133 120.244 28.5228 119.481 28.3707C118.54 28.183 117.658 28.6734 117.024 29.3283C116.86 29.4972 116.594 29.7386 116.525 29.9698C116.408 30.3644 116.517 30.9256 116.517 31.3372C116.517 32.3879 116.512 33.4389 116.509 34.4899C116.507 35.0459 116.502 35.6018 116.496 36.1576C116.492 36.5246 116.479 36.9282 116.653 37.263C116.998 37.9277 117.547 37.8383 118.139 38.0349C118.128 38.1587 118.209 38.4697 118.1 38.5399C117.303 38.4792 116.481 38.5331 115.682 38.5315C114.638 38.5293 113.587 38.4848 112.544 38.5201C112.47 38.3722 112.496 38.2086 112.495 38.0464Z" fill="#1C3859"/>
<path fill-rule="evenodd" clip-rule="evenodd" d="M113.239 11.5117C113.473 11.3211 114.208 11.3719 114.509 11.4221C114.515 11.7441 114.493 12.0702 114.507 12.3908C114.255 12.5787 113.596 12.4333 113.297 12.409C113.197 12.1274 113.217 11.8057 113.239 11.5117Z" fill="#1F3A5C"/>
<path fill-rule="evenodd" clip-rule="evenodd" d="M113.303 9.85165C113.673 9.72588 114.128 9.77885 114.515 9.79074C114.548 10.1342 114.555 10.5333 114.523 10.8769C114.468 10.9569 114.331 10.9257 114.242 10.9253C113.926 10.9242 113.602 10.9554 113.289 10.9039C113.276 10.5515 113.282 10.2035 113.303 9.85165Z" fill="#1B375E"/>
<path fill-rule="evenodd" clip-rule="evenodd" d="M115.031 9.9065C115.041 9.87208 115.051 9.83767 115.062 9.80326C115.453 9.8238 115.861 9.74145 116.248 9.81947C116.256 10.1526 116.216 10.5377 116.285 10.8632C115.885 10.8913 115.416 10.9472 115.02 10.9027C115.038 10.5708 115.003 10.238 115.031 9.9065Z" fill="#233C5F"/>
<path fill-rule="evenodd" clip-rule="evenodd" d="M115.043 11.4197C115.249 11.2348 116.024 11.3472 116.311 11.3654C116.314 11.7049 116.273 12.0461 116.272 12.3854C115.892 12.3913 115.394 12.5232 115.027 12.4306C115.045 12.0939 115.018 11.7564 115.043 11.4197Z" fill="#213B5D"/>
</g>
<defs>
<clipPath id="clip0_15_350">
<rect width="125" height="50" fill="white"/>
</clipPath>
</defs>
</svg>
