<svg width="240" height="96" viewBox="0 0 240 96" fill="none" xmlns="http://www.w3.org/2000/svg">
<g clip-path="url(#clip0_17_108)">
<path fill-rule="evenodd" clip-rule="evenodd" d="M0.151837 18.4642C0.837739 17.7896 1.92849 17.6575 2.76303 17.2084C4.53658 16.254 6.61739 14.4087 7.09501 12.3525C6.57704 12.4507 6.10909 12.9295 5.65492 13.1865C4.78935 13.6767 3.76378 13.9756 2.76682 13.9725C2.03712 13.9704 1.13776 13.4657 1.39605 12.6012C1.86642 11.8899 2.9589 11.6799 3.65722 11.2354C5.22421 10.2374 7.03018 8.50177 7.34813 6.56865C6.895 6.65548 6.49842 7.05263 6.12702 7.3062C5.20765 7.93409 4.06379 8.2534 2.96062 8.09841C2.30403 8.00605 1.65641 7.39373 1.84952 6.68628C2.23541 6.24451 2.79889 6.1127 3.32237 5.89372C3.99275 5.61351 4.64348 5.26065 5.17627 4.75869C6.00356 3.97963 6.65567 3.00235 7.03983 1.93235C7.25605 1.33007 7.28364 0.658942 7.58573 0.0919444C7.97644 -0.0575023 8.61751 -0.0218707 8.96098 0.222364C9.13789 0.813923 9.12892 1.43454 9.32686 2.02161C9.75413 3.28879 10.7352 4.42451 11.8098 5.19423C12.6012 5.76123 14.7889 6.0245 14.5458 7.33354C14.2554 7.83342 13.5971 7.97422 13.0664 8.00432C11.7894 8.07662 10.4673 7.61443 9.4417 6.86409C9.84345 8.66679 11.009 10.208 12.5974 11.1479C13.3474 11.5917 14.3937 11.8443 15.0051 12.4663C15.1144 12.7876 15.0613 13.0305 14.9234 13.3394C14.5599 13.8348 13.8864 13.8642 13.3199 13.8493C11.9308 13.8137 10.5225 13.1204 9.37376 12.387C10.05 14.4032 11.6801 16.0284 13.4888 17.0642C14.3078 17.5329 15.4703 17.7616 16.1131 18.4673C16.2418 18.7883 16.179 19.1087 16.0666 19.4252C15.6369 20.013 14.8303 19.9978 14.1668 19.9552C12.2829 19.8345 10.9842 18.797 9.45101 17.854C9.32204 18.6223 9.34066 19.5297 9.40135 20.3084C8.61061 20.243 7.83057 20.3385 7.03397 20.2344C6.84258 19.4242 7.08328 18.5483 6.97328 17.7222C5.51043 18.879 3.88309 19.9728 1.94918 19.9991C1.14603 20.0099 -0.432681 19.6193 0.151837 18.4642Z" fill="white"/>
<path fill-rule="evenodd" clip-rule="evenodd" d="M0.780434 72.8925C2.38329 72.7476 4.13546 72.3442 4.65515 70.5782C4.86861 69.8538 4.78688 69.0415 4.7855 68.2963C4.78308 67.0855 4.78895 65.8748 4.78757 64.664C4.78274 60.6275 4.81585 56.5914 4.81826 52.555C4.81929 50.9747 4.85206 49.391 4.80412 47.8111C4.77964 47.012 4.84205 46.0959 4.54204 45.3407C4.21271 44.5122 3.44094 43.8054 2.5964 43.5307C2.09948 43.3695 1.39357 43.3924 0.969411 43.1167C0.90389 42.7603 0.899062 42.4158 0.945616 42.0563C4.13856 42.1297 7.35013 42.0754 10.5445 42.0415C11.4759 42.0314 12.407 42.02 13.3384 42.01C13.7188 42.0058 14.2281 41.8948 14.5878 42.0269C14.5692 42.4147 14.584 42.8271 14.6326 43.2125C14.5878 43.2976 14.2447 43.2533 14.1516 43.2588C13.7964 43.2813 13.4412 43.3609 13.0988 43.456C12.0635 43.7442 10.9303 44.5405 10.6269 45.6316C10.1251 47.4371 10.4179 49.6577 10.4145 51.5182C10.4069 55.2661 10.4141 59.0137 10.4186 62.7616C10.4207 64.3519 10.4334 65.9432 10.4145 67.5335C10.4031 68.498 10.2838 69.5902 10.5589 70.528C11.071 72.274 12.8563 72.6815 14.4112 72.9019C14.535 73.2312 14.4309 73.6363 14.4657 73.9809C11.2693 74.0978 8.03673 74.0064 4.83585 74.023C3.50094 74.03 2.10879 73.9248 0.781469 74.0659C0.727673 73.6806 0.74457 73.2796 0.780434 72.8925Z" fill="white"/>
<path fill-rule="evenodd" clip-rule="evenodd" d="M0.920628 37.0712C2.30381 36.8529 3.83804 36.691 4.75051 35.4774C5.54159 34.4257 5.28089 32.6898 5.28778 31.4538C5.29813 29.5511 5.29296 27.6481 5.29468 25.7454C5.29606 24.5097 5.22778 23.2193 5.42158 21.9957C5.61884 21.7505 6.2106 21.8764 6.52165 21.8823C7.50033 21.9006 8.48073 21.9265 9.45941 21.922C9.77046 21.9203 10.3157 21.8293 10.5329 22.0698C10.4736 24.8989 10.5546 27.7549 10.5643 30.5882C10.5688 31.8374 10.3643 33.2969 11.1326 34.3697C11.9392 35.4961 13.39 35.8227 14.6842 35.9496C17.664 36.2423 20.8739 35.1917 22.9116 32.9444C26.9111 28.534 27.4405 20.8237 25.3814 15.4045C24.4058 12.8373 22.7768 10.6731 20.2552 9.48026C19.5938 9.16718 18.9186 8.92468 18.2127 8.73234C17.9103 8.64966 17.5006 8.659 17.2506 8.47738C17.1719 7.65231 17.2554 6.76324 17.3513 5.94232C19.6752 5.44728 22.5998 6.63489 24.5962 7.73118C25.8707 8.43136 27.0418 9.31489 28.0729 10.343C33.8495 16.103 34.1564 25.4821 29.4547 32.0149C27.395 34.8765 24.3068 36.9826 20.8487 37.7208C17.9744 38.3342 15.0149 38.192 12.0958 38.1626C8.42211 38.1256 4.72947 38.072 1.05684 38.1667C0.808896 38.0114 0.914421 37.3458 0.920628 37.0712Z" fill="white"/>
<path fill-rule="evenodd" clip-rule="evenodd" d="M2.37441 89.8901C2.89996 89.8423 3.96829 89.5438 4.44901 89.7441C5.01974 91.856 7.46885 92.0083 9.32827 91.7187C10.1452 91.5914 11.5018 91.159 11.4001 90.0904C11.308 89.1231 9.979 89.0487 9.24585 88.9709C7.02813 88.7346 2.57407 88.8965 2.70443 85.6419C2.72339 85.1655 2.82823 84.7189 3.0979 84.319C4.36659 82.4354 7.25332 82.5831 9.23412 82.7377C9.9521 82.7938 10.648 82.9394 11.3025 83.2514C12.1222 83.6424 12.8885 84.3536 13.0699 85.2859C13.0909 85.3956 13.2326 85.9698 13.1457 86.0491C12.5278 86.0577 11.9153 86.0826 11.3032 86.1653C10.8666 85.8176 10.8377 85.1915 10.2735 84.8611C9.15653 84.2073 7.20952 84.2256 5.98566 84.556C5.49804 84.6878 4.78765 84.9881 4.77351 85.5876C4.74489 86.7804 6.09428 86.9662 6.98571 87.0744C9.21171 87.3446 13.5385 86.9672 13.562 90.1689C13.5651 90.5674 13.5185 90.9462 13.3475 91.3098C12.9092 92.2414 11.8088 92.8714 10.8418 93.1032C8.86203 93.5781 6.38637 93.6812 4.48798 92.8274C3.27411 92.2815 2.34096 91.297 2.37441 89.8901Z" fill="white"/>
<path fill-rule="evenodd" clip-rule="evenodd" d="M16.7404 73.3487C16.7379 73.2473 16.7352 73.1463 16.7324 73.0453C17.8121 72.8502 18.9536 72.7378 19.5205 71.6432C20.0795 70.5646 19.8795 69.0774 19.8726 67.9074C19.8578 65.463 19.8788 63.0185 19.8819 60.5741C19.8833 59.4308 20.1202 57.8678 19.6185 56.8075C19.0936 55.6991 18.0011 55.4829 16.9245 55.2608C16.3958 54.5312 17.8725 54.1306 18.3139 53.9071C19.5878 53.2616 20.8799 52.6559 22.1627 52.0318C22.7214 51.7599 23.377 51.3755 24.0166 51.5046C24.4808 52.6026 24.2184 54.2095 24.2708 55.394C24.378 55.523 24.5222 55.2971 24.607 55.1968C24.8915 54.8609 25.1915 54.5547 25.5181 54.26C26.3637 53.4965 27.3227 52.8614 28.3114 52.3016C30.8367 50.8719 34.0786 51.1285 35.9763 53.4571C37.4009 55.2055 37.385 57.4126 37.3692 59.5501C37.3502 62.0624 37.3536 64.5742 37.354 67.0865C37.3547 69.031 36.8319 71.8774 39.1265 72.7229C39.6507 72.9159 40.1917 72.8713 40.7369 72.9111C40.8442 73.2477 40.7621 73.614 40.7956 73.9596C37.2305 74.2122 33.6003 73.6725 30.0418 73.9807C29.8522 73.7472 29.9494 73.3314 29.9273 73.0398C31.146 72.9232 32.2502 72.5461 32.6899 71.2762C33.1317 70.0003 32.8761 68.3509 32.8713 67.0221C32.863 64.8738 32.8944 62.7245 32.8599 60.5762C32.8413 59.4242 32.9199 58.2131 32.6792 57.0808C32.3268 55.4217 30.8139 54.3742 29.1742 54.4485C27.6113 54.5195 26.214 55.3535 25.164 56.4785C24.8839 56.7788 24.4367 57.1908 24.3153 57.5918C24.0825 58.3611 24.2922 59.5325 24.2836 60.3413C24.2618 62.4571 24.276 64.5732 24.2884 66.689C24.2998 68.7141 23.6694 72.021 26.1588 72.8208C26.5768 72.955 27.0582 72.9605 27.4944 72.9678C27.5165 73.283 27.4258 73.7407 27.5234 74.0333C25.0908 73.9154 22.6373 73.9385 20.1992 73.9461C19.0898 73.9496 17.8777 74.1015 16.7821 73.9333C16.7555 73.732 16.7359 73.5532 16.7404 73.3487Z" fill="white"/>
<path fill-rule="evenodd" clip-rule="evenodd" d="M18.4071 82.9556C20.3072 82.9584 22.2097 82.9134 24.1112 82.92C25.1785 82.9234 26.3848 82.8421 27.3655 83.34C29.4515 84.3989 29.9891 87.7241 27.6711 88.8958C26.8538 89.3092 25.9051 89.3424 25.0106 89.3815C23.5084 89.4475 21.9769 89.3967 20.4724 89.3462C20.5 90.5535 20.2586 91.9227 20.4858 93.1093C19.8068 93.1156 19.124 93.0799 18.4471 93.1387C18.3347 93.0052 18.406 92.5773 18.4129 92.3963C18.4378 91.7436 18.4274 91.088 18.4333 90.4349C18.4561 87.9417 18.4067 85.4485 18.4071 82.9556ZM20.4848 84.6303C20.5117 85.3551 20.4758 86.0912 20.4724 86.818C20.4707 87.1252 20.3975 87.5317 20.5155 87.8144C21.8918 87.7739 23.2746 87.8355 24.6523 87.8182C25.3158 87.8099 26.0886 87.8164 26.6189 87.3511C27.4587 86.6146 27.0566 85.2271 26.0958 84.8206C25.4534 84.549 24.6757 84.6158 23.9933 84.6172C22.8242 84.6196 21.6531 84.5919 20.4848 84.6303Z" fill="white"/>
<path fill-rule="evenodd" clip-rule="evenodd" d="M33.7563 82.9555C35.9619 82.9293 38.1686 82.931 40.3753 82.9272C41.4681 82.9251 42.693 82.777 43.7703 82.958C43.7479 83.3098 43.5541 84.3289 43.7362 84.5943C41.1671 84.4255 38.429 84.5251 35.855 84.6417C35.8471 85.3052 35.7954 85.9649 35.833 86.6294C35.8443 86.8249 35.7892 87.1003 35.9009 87.2615C37.92 87.2812 39.9467 87.2217 41.9647 87.2653C41.9854 87.751 41.8754 88.3 41.9685 88.7729C39.9505 88.6591 37.8672 88.7428 35.8457 88.785C35.8064 89.6959 35.8161 90.5977 35.8361 91.5089C38.5173 91.5982 41.2081 91.5619 43.891 91.5373C43.8362 91.8839 43.761 92.8069 43.9155 93.1068C41.4157 93.0508 38.9076 93.1217 36.4064 93.1183C35.775 93.1172 35.1443 93.1114 34.5129 93.1037C34.3098 93.1013 33.9377 93.1947 33.7801 93.0598C33.6239 89.6962 33.8011 86.3202 33.7563 82.9555Z" fill="white"/>
<path fill-rule="evenodd" clip-rule="evenodd" d="M34.6533 37.1532C35.741 36.9868 36.9869 36.8615 37.6342 35.8317C38.317 34.7451 38.0366 33.0271 38.0339 31.8007C38.0277 29.3214 37.9984 26.8424 37.9915 24.363C37.9884 23.2276 38.2018 21.7072 37.7959 20.6282C37.5125 19.8751 36.6641 19.3514 35.9393 19.0954C35.5837 18.9698 34.934 18.9234 34.8806 18.4858C35.3203 17.9306 36.1534 17.7282 36.7748 17.4331C37.8114 16.9412 38.8684 16.4932 39.9233 16.0431C40.6737 15.7235 41.4548 15.3571 42.2841 15.381C42.7142 16.8094 42.4083 18.7252 42.4072 20.2145C42.4048 23.5583 42.3869 26.9026 42.4072 30.2464C42.4155 31.5748 42.3965 32.9029 42.4648 34.2286C42.5079 35.0682 42.6438 35.8638 43.3435 36.4125C44.0756 36.9864 44.8667 36.9311 45.7078 37.1414C45.7354 37.4112 45.9064 37.7956 45.8123 38.0599C44.1208 38.1571 42.41 38.0727 40.7164 38.0796C38.6812 38.0875 36.6221 38.1768 34.5895 38.0879C34.5737 37.7883 34.555 37.488 34.5254 37.1891C34.5682 37.177 34.6106 37.1653 34.6533 37.1532Z" fill="white"/>
<path fill-rule="evenodd" clip-rule="evenodd" d="M36.9096 9.17322C37.2668 6.02411 41.7923 5.15995 42.9096 8.29072C43.081 8.77158 43.1117 9.29775 43.0544 9.80317C43.0044 10.2463 42.8517 10.6431 42.6223 11.0237C41.0291 13.666 36.5458 12.3815 36.9096 9.17322Z" fill="white"/>
<path fill-rule="evenodd" clip-rule="evenodd" d="M41.0404 53.9241C43.0757 52.4383 44.7882 50.9646 46.1635 48.8225C46.8473 47.7571 47.176 46.4854 47.8739 45.4475C48.2229 45.4285 48.5267 45.3915 48.8737 45.4552C49.1102 46.0678 48.9813 46.8884 48.9806 47.5408C48.9795 49.0149 48.9612 50.4914 49.0075 51.963C49.4596 52.1256 50.1106 51.9969 50.5927 51.9993C51.908 52.0066 53.2218 52.0087 54.5371 52.0398C55.1651 52.0547 55.9061 51.9225 56.4969 52.1605C56.6445 52.8064 55.7299 53.9615 55.1361 54.1732C54.5002 54.3998 53.7022 54.3064 53.0411 54.3147C51.6969 54.3323 50.3538 54.2967 49.0095 54.313C49.0295 57.4548 49.0006 60.6112 48.9854 63.7568C48.9771 65.4741 48.7988 67.4006 49.1778 69.0823C49.5968 70.9438 51.5942 71.8591 53.345 71.1454C54.1622 70.8123 54.7509 70.1785 55.3637 69.5669C55.6561 69.5956 55.8441 69.7402 55.931 70.0343C55.783 70.7154 55.1968 71.3693 54.7654 71.8951C52.5108 74.6429 47.3884 75.7734 45.34 72.1117C44.3906 70.4141 44.461 68.4357 44.4672 66.5503C44.4751 64.0761 44.4817 61.602 44.4789 59.1278C44.4779 57.9537 44.4831 56.7795 44.4713 55.6051C44.4682 55.2868 44.5862 54.5773 44.3772 54.3424C43.6196 54.3753 42.8592 54.3884 42.1012 54.4057C41.8212 54.4123 41.3332 54.5403 41.0735 54.432C40.7532 54.2978 40.9035 54.13 41.0404 53.9241Z" fill="white"/>
<path fill-rule="evenodd" clip-rule="evenodd" d="M47.5436 30.712C47.8195 30.7228 48.0954 30.7349 48.3709 30.7376C48.8185 31.2538 48.9189 32.2162 49.183 32.8517C49.8883 34.5478 50.889 35.8596 52.6181 36.5927C53.5636 36.9933 54.6606 37.1645 55.661 36.8677C57.6591 36.2755 58.5326 34.0545 57.5901 32.2179C56.799 30.6767 55.1575 29.8766 53.7261 29.0491C51.2294 27.6062 48.6602 25.882 48.2102 22.8014C47.7312 19.5201 50.0269 16.269 53.2991 15.6743C54.9179 15.3803 56.2552 15.8829 57.8294 16.0618C58.475 16.1351 59.0816 15.9355 59.7147 15.8521C59.9361 15.8231 60.3078 15.7466 60.4985 15.859C60.5679 17.4981 60.6144 19.1375 60.6606 20.7783C60.6765 21.3384 60.5375 22.3693 60.8141 22.8606C60.5285 22.8398 60.2399 22.8529 59.9526 22.8311C59.0447 20.805 58.2753 18.5487 56.1148 17.5334C53.9878 16.534 51.2032 17.8652 51.5004 20.4307C51.6601 21.811 52.8429 22.6599 53.9106 23.3684C56.0741 24.8041 58.685 25.7014 60.3665 27.7885C63.516 31.6976 60.963 37.6544 56.2066 38.5704C54.6709 38.8662 53.1419 38.715 51.6321 38.3449C50.371 38.0356 49.3093 37.6194 47.9957 37.6136C47.7802 36.3585 47.874 35.0031 47.7643 33.7269C47.6816 32.7621 47.3747 31.6713 47.5436 30.712Z" fill="white"/>
<path fill-rule="evenodd" clip-rule="evenodd" d="M47.9283 87.0097C48.2031 85.6516 48.8004 84.3526 49.997 83.569C53.3441 81.3771 59.2472 82.5163 60.2797 86.7444C59.5628 86.6752 58.7486 86.5849 58.0344 86.6738C57.774 86.45 57.6565 85.9387 57.4289 85.6464C56.9864 85.0777 56.3516 84.6968 55.6729 84.4816C54.1869 84.0101 52.0141 84.1997 50.924 85.4305C49.7091 86.8025 49.7167 89.2874 50.9626 90.6432C51.6444 91.3849 52.6675 91.7014 53.6448 91.7744C54.4321 91.8332 55.2601 91.7561 56.0112 91.5056C56.6288 91.2994 57.1606 90.923 57.5489 90.3993C57.7541 90.1229 57.8496 89.7441 58.1206 89.5278C58.8376 89.5548 59.5593 89.5472 60.2752 89.5047C60.2607 89.8721 60.0056 90.2969 59.8324 90.612C58.9096 92.2923 57.5602 92.9662 55.7567 93.3529C52.3872 94.0756 48.4973 92.7019 47.9259 88.9736C47.8269 88.3281 47.8259 87.6553 47.9283 87.0097Z" fill="white"/>
<path fill-rule="evenodd" clip-rule="evenodd" d="M56.9043 61.4142C57.1312 59.9395 57.4046 58.5149 58.095 57.1737C60.0941 53.2926 64.3182 50.8471 68.6943 51.4722C71.9024 51.9306 74.605 54.3193 75.395 57.4947C75.5657 58.1807 75.9537 59.5718 75.6271 60.2415C74.4098 60.7711 72.7835 60.5781 71.4917 60.5103C69.2891 60.3944 67.0628 60.4719 64.8578 60.4816C63.9402 60.4854 63.0215 60.4657 62.1042 60.4819C61.8501 60.4864 61.3597 60.4359 61.2018 60.6463C61.1956 63.3667 61.6697 66.1481 63.5071 68.2725C66.7097 71.9755 72.2372 71.7032 74.8577 67.5274C75.1329 67.5319 75.5061 67.7868 75.6999 67.9785C74.2884 71.5022 70.933 74.3749 67.069 74.4542C65.6758 74.4825 64.2788 74.1297 63.0067 73.5751C62.0128 73.142 61.1007 72.5304 60.3038 71.7942C57.5205 69.2239 56.5705 65.0791 56.9043 61.4142ZM61.3866 58.8477C61.3797 58.8972 61.3732 58.9467 61.3663 58.9961C63.3322 58.902 65.3017 58.9083 67.2732 58.9055C68.2853 58.9041 69.4443 59.0587 70.4368 58.8297C70.8134 58.2295 70.7454 57.3754 70.6323 56.7053C70.2709 54.5598 68.338 52.828 66.1148 53.0871C64.0492 53.3282 62.5505 55.1731 61.8577 57.0142C61.6311 57.6165 61.5687 58.2392 61.3866 58.8477Z" fill="white"/>
<path fill-rule="evenodd" clip-rule="evenodd" d="M64.6441 33.0368C65.6338 29.2539 69.7495 27.5702 72.929 25.982C73.7219 25.5859 74.6754 25.2614 75.3499 24.6736C75.593 24.1149 75.4444 23.1951 75.4502 22.5893C75.4613 21.4699 75.5923 20.2259 75.093 19.1901C74.3098 17.5666 72.0028 17.6161 70.6779 18.4802C69.6637 19.1413 69.1788 20.174 69.1161 21.3592C69.0868 21.9144 69.2123 22.6658 68.9819 23.1802C68.2874 23.8015 67.0728 23.9855 66.1738 23.9634C65.6879 23.9513 65.2289 23.8361 65.1431 23.284C64.9189 21.8411 65.909 20.4192 66.7394 19.3454C69.0178 16.3987 74.0915 14.083 77.5683 16.2738C79.6877 17.6092 79.7646 19.864 79.7736 22.1144C79.7839 24.8241 79.7608 27.5339 79.7653 30.2436C79.7681 31.7229 79.1953 34.698 80.7792 35.5237C81.7841 36.0478 82.412 35.2273 83.3335 35.1688C83.8311 35.9603 83.03 36.5249 82.4444 36.9705C81.0278 38.0484 79.456 38.7773 77.6238 38.4549C76.7338 38.2982 75.9903 37.6872 75.6978 36.8182C75.5651 36.4246 75.482 36.016 75.4433 35.6023C75.4337 35.4957 75.4789 35.1896 75.3254 35.2176C73.8019 36.7463 71.9335 38.2349 69.7502 38.5552C66.4507 39.0392 63.9837 36.2727 64.6441 33.0368ZM68.9778 32.1882C68.8705 34.0556 70.1303 35.8036 72.1435 35.5365C72.8328 35.4452 73.4598 35.0405 74.0191 34.6523C74.4971 34.3206 75.113 33.8715 75.3713 33.3343C75.7975 31.0213 75.342 28.4703 75.4271 26.1259C72.7549 27.5481 69.5313 28.8896 68.9778 32.1882Z" fill="white"/>
<path fill-rule="evenodd" clip-rule="evenodd" d="M65.1394 82.9247C65.7408 82.9271 66.6653 82.7621 67.2253 82.9828C67.2557 86.3509 67.3912 89.7639 67.3022 93.1254C66.6436 93.0358 65.8508 93.0646 65.1928 93.1317C65.0507 92.2101 65.1569 91.1951 65.1545 90.2631C65.1483 87.8277 65.2752 85.3556 65.1394 82.9247Z" fill="white"/>
<path fill-rule="evenodd" clip-rule="evenodd" d="M71.9364 92.8865C73.5793 89.5437 75.4991 86.3423 77.0974 82.9725C77.7268 82.8034 78.8537 82.83 79.4817 83.0012C80.5304 85.5086 81.9646 87.978 83.2585 90.3722C83.6092 91.0209 83.9465 91.6768 84.2941 92.3268C84.4299 92.5804 84.6817 92.8249 84.7689 93.0955C84.021 93.0439 83.2626 93.0979 82.5136 93.0706C81.9677 92.7793 81.7022 91.5207 81.357 90.9921C80.9939 90.7413 80.1273 90.8884 79.6862 90.8839C78.2634 90.8683 76.7881 90.7545 75.3725 90.9015C74.7297 91.3927 74.5497 92.4392 74.0852 93.0899C73.5517 93.1702 72.981 93.0889 72.442 93.1041C72.2227 93.1103 72.0009 93.2013 71.813 93.063C71.854 93.0041 71.8954 92.9453 71.9364 92.8865ZM76.2053 88.8854C76.1012 89.1012 76.1563 88.9725 76.0543 89.2773C77.0081 89.5904 78.3417 89.3766 79.3427 89.3697C79.7017 89.3673 80.2211 89.4942 80.5528 89.3946C80.1756 88.362 79.5024 87.3539 79.0134 86.3635C78.8255 85.9829 78.6655 85.5948 78.4637 85.2218C78.4041 85.1115 78.2717 84.7531 78.2448 84.742C78.162 84.7071 78.1879 84.9133 78.1596 84.9987C77.753 86.3538 76.8554 87.6341 76.2053 88.8854Z" fill="white"/>
<path fill-rule="evenodd" clip-rule="evenodd" d="M77.6816 73.0505C78.6541 72.9117 79.8328 72.7976 80.4011 71.8743C81.115 70.7143 80.8649 69.0683 80.8594 67.7697C80.8498 65.4083 80.8642 63.0462 80.8642 60.6848C80.8642 59.4975 81.0508 58.0826 80.7246 56.9296C80.4877 56.0928 79.6038 55.522 78.8276 55.2362C78.3906 55.0753 77.6723 55.0989 77.8579 54.4236C79.53 53.5425 81.3253 52.8485 83.0133 51.9795C83.5523 51.7021 84.4772 51.0534 85.0779 51.4111C85.2769 51.865 85.1824 52.4088 85.1873 52.8956C85.1973 53.9694 85.1955 55.0567 85.2735 56.127C85.7228 55.9675 86.1497 54.9653 86.4318 54.5931C87.2588 53.5006 88.2819 52.1428 89.5713 51.5779C90.8755 51.0064 92.5187 51.489 93.6798 52.1733C94.0592 52.3967 94.8133 52.8648 94.743 53.3903C94.3395 54.5512 93.2408 56.071 92.366 56.9275C91.9014 56.831 91.4204 56.3446 91.0349 56.0845C90.2145 55.5303 88.9609 55.175 87.9943 55.5524C87.1088 55.8983 86.4925 56.8109 85.9797 57.5654C85.7914 57.8418 85.5056 58.1335 85.3911 58.449C85.1052 59.237 85.2904 60.452 85.2907 61.2836C85.2917 63.2576 85.2897 65.2315 85.2873 67.2054C85.2855 68.4391 84.9917 70.2355 85.5907 71.3633C86.0173 72.1669 86.7808 72.6319 87.656 72.8114C87.934 72.8685 88.7892 72.772 88.9416 72.9588C88.9316 73.2549 89.0699 73.8139 88.9451 74.0696C86.7939 74.0931 84.6072 73.9291 82.4436 73.9399C80.8994 73.9475 79.2879 74.1644 77.7506 74.0395C77.7289 73.7102 77.7161 73.3784 77.6816 73.0505Z" fill="white"/>
<path fill-rule="evenodd" clip-rule="evenodd" d="M85.0083 30.5992C85.3628 30.5902 85.6749 30.5905 86.0197 30.6746C86.5715 32.8146 87.3129 35.1434 89.3893 36.2799C91.798 37.5982 95.441 36.8897 95.3937 33.5905C95.3593 31.1679 92.9615 29.9806 91.1432 28.93C88.1406 27.1958 85.1956 24.9939 85.6749 21.0923C85.7587 20.4095 85.9718 19.7408 86.2594 19.1177C86.7222 18.1162 87.4747 17.2835 88.3719 16.6539C89.4424 15.9025 90.7579 15.5964 92.0504 15.5818C93.3664 15.5673 94.5892 16.0876 95.8817 16.1219C96.6097 16.1416 97.3059 15.832 98.0353 15.7963C98.2729 18.0792 98.0118 20.4323 98.3739 22.703C98.1015 22.6833 97.7867 22.7107 97.5128 22.7314C97.1501 22.3754 96.9756 21.5753 96.7635 21.1065C96.31 20.1064 95.732 19.1028 94.8713 18.3999C93.0664 16.9255 89.7682 16.7138 89.0606 19.4709C88.9623 19.8539 88.9106 20.2493 88.9823 20.6416C89.3579 22.6975 91.8242 23.7277 93.4505 24.633C95.9507 26.0244 98.8567 27.7489 99.1285 30.9195C99.1843 31.5681 99.1402 32.2348 99.0202 32.8737C98.8884 33.5739 98.6784 34.2423 98.3674 34.8836C97.8529 35.9439 97.0538 36.8251 96.0707 37.4664C94.9441 38.2019 93.576 38.5717 92.2411 38.6374C90.5886 38.7191 89.1292 38.1348 87.5174 37.939C86.8667 37.8598 86.3077 37.9936 85.6756 38.0407C85.3335 35.5883 85.4194 33.0339 85.0083 30.5992Z" fill="white"/>
<path fill-rule="evenodd" clip-rule="evenodd" d="M88.9254 83.0868C89.571 82.9242 90.2634 83.0021 90.9228 83.0173C91.2583 83.5563 91.0104 84.7871 91.011 85.4209C91.0131 87.4395 90.9779 89.4598 91.0376 91.4776C93.4215 91.3566 95.8375 91.5541 98.2256 91.5022C98.2532 91.991 98.087 92.6573 98.2311 93.1202C95.1609 93.1067 92.0428 93.0192 88.9771 93.1748C88.663 92.2612 88.902 90.8837 88.902 89.9178C88.902 87.6432 88.8516 85.3604 88.9254 83.0868Z" fill="white"/>
<path fill-rule="evenodd" clip-rule="evenodd" d="M95.1893 52.593C95.2328 52.3577 95.2255 52.2436 95.3742 52.0454C96.1522 51.7932 97.147 51.9277 97.9633 51.9149C99.8027 51.8862 101.645 51.8714 103.484 51.9059C104.114 51.9177 104.745 51.9333 105.375 51.9229C105.627 51.9187 105.987 51.8502 106.19 52.0059C106.188 52.3339 106.248 52.675 106.204 53.0012C105.282 53.0219 103.678 53.1375 103.401 54.2594C103.09 55.5176 104.145 57.0563 104.597 58.182C105.84 61.2713 107.085 64.3629 108.296 67.4602C108.604 66.4718 109.098 65.5225 109.483 64.5601C110.336 62.4302 111.159 60.2912 111.968 58.1436C112.394 57.0124 113.286 55.256 112.567 54.0916C112.167 53.4426 111.395 53.0565 110.657 52.9777C110.378 52.9479 109.911 53.0448 109.664 52.9234C109.737 52.6103 109.715 52.2747 109.684 51.9568C111.336 51.7748 113.03 51.8925 114.69 51.8897C116.054 51.8873 117.492 51.7371 118.848 51.8693C118.896 52.2042 118.884 52.4885 118.769 52.8116C118.041 53.2721 117.218 53.2316 116.551 53.8958C114.885 55.5546 114.133 58.31 113.226 60.4279C111.28 64.9721 109.395 69.5476 107.588 74.1451C107.136 74.1607 106.684 74.1147 106.234 74.177C105.466 72.732 104.962 71.0597 104.345 69.5413C102.828 65.8086 101.31 62.0604 99.7048 58.3654C98.7151 56.0873 98.1226 53.2506 95.1928 52.9458C95.1649 52.7296 95.17 52.8469 95.1893 52.593Z" fill="white"/>
<path fill-rule="evenodd" clip-rule="evenodd" d="M101.046 18.5266C101.545 17.3279 103.158 16.5623 104.061 15.6636C105.589 14.1414 107.008 11.9039 107.696 9.85417C108.051 9.85936 108.407 9.85106 108.762 9.84033C108.681 11.9945 108.846 14.1587 108.77 16.3143C109.301 16.5035 110.153 16.3125 110.723 16.3119C112.519 16.3108 114.54 16.0711 116.31 16.3738C116.432 16.544 116.284 16.7848 116.18 16.9512C115.908 17.3805 115.468 18.2152 114.977 18.4038C114.374 18.6356 113.596 18.5498 112.962 18.5674C111.591 18.6055 110.202 18.6411 108.833 18.585C108.631 22.8782 108.723 27.2291 108.766 31.5267C108.782 33.1848 109.07 35.2598 111.037 35.6417C112.033 35.8351 113.034 35.5455 113.79 34.8809C114.186 34.534 114.534 33.9704 115.03 33.7746C115.304 33.9943 115.503 34.3534 115.453 34.7135C115.325 35.3092 114.63 35.8873 114.252 36.3474C113.548 37.2043 112.727 37.9173 111.681 38.3241C109.413 39.2056 106.262 38.5628 105.076 36.2789C104.154 34.5039 104.367 32.3483 104.366 30.4142C104.364 27.7781 104.367 25.142 104.363 22.5063C104.362 21.2287 104.486 19.8647 104.348 18.5992C103.254 18.5944 102.164 18.7231 101.07 18.704C101.062 18.6449 101.054 18.5857 101.046 18.5266Z" fill="white"/>
<path fill-rule="evenodd" clip-rule="evenodd" d="M102.609 86.5003C102.721 85.3932 102.645 84.2284 102.635 83.1159C103.252 82.8436 104.117 83.0222 104.777 83.0121C104.996 86.3778 104.568 89.7832 104.796 93.1479C104.09 93.1274 103.377 93.1371 102.671 93.1382C102.524 90.9577 102.53 88.6845 102.609 86.5003Z" fill="white"/>
<path fill-rule="evenodd" clip-rule="evenodd" d="M109.871 90.3122C109.855 90.2285 109.84 90.1451 109.824 90.0614C110.343 89.8248 111.467 89.5712 112.017 89.7819C112.263 91.9841 115.462 92.0685 117.099 91.6316C117.808 91.442 118.893 90.9757 118.902 90.088C118.913 89.0858 117.303 89.0011 116.63 88.9523C115.025 88.8354 113.079 88.8094 111.615 88.0743C110.446 87.4869 109.831 85.9973 110.409 84.7636C111.409 82.6323 114.402 82.6492 116.39 82.7492C117.006 82.7804 117.605 82.8561 118.195 83.044C119.401 83.4283 120.784 84.5606 120.519 86.0076C119.896 86.0294 119.273 85.9696 118.659 86.1062C117.946 84.2164 115.908 84.2541 114.2 84.4499C113.444 84.5367 112.075 84.8591 112.28 85.9077C112.479 86.9285 113.715 87.0002 114.541 87.0953C116.151 87.2804 117.85 87.2219 119.366 87.8515C120.643 88.3808 121.329 89.4885 120.898 90.8782C120.555 91.9827 119.531 92.5816 118.521 92.9635C117.957 93.1766 117.349 93.2662 116.753 93.3364C114.421 93.6111 110.257 93.37 109.871 90.3122Z" fill="white"/>
<path fill-rule="evenodd" clip-rule="evenodd" d="M116.401 26.4771C116.633 24.4804 116.883 22.677 117.865 20.8777C120.107 16.7704 124.998 14.5515 129.502 16.0148C132.166 16.8804 134.025 19.0968 134.847 21.7305C135.063 22.4244 135.486 23.886 135.019 24.5423C134.747 24.8197 134.274 24.7927 133.913 24.7986C133.022 24.8128 132.13 24.8087 131.239 24.8139C127.706 24.8336 124.142 24.617 120.613 24.7668C120.472 25.5597 120.588 26.4495 120.689 27.2441C121.286 31.9236 125.325 36.2894 130.34 34.9413C131.083 34.7413 131.753 34.3231 132.372 33.8792C133.196 33.2887 133.786 32.5695 134.335 31.7261C134.668 31.769 135.011 31.8586 135.316 32.0035C135.09 32.7823 134.581 33.4797 134.151 34.1595C131.138 38.922 125.107 39.8692 120.591 36.6554C117.494 34.4507 116.191 30.1403 116.401 26.4771ZM120.875 22.8437C120.861 22.9164 120.847 22.9894 120.833 23.0623C121.342 23.3654 122.638 23.1661 123.243 23.1762C124.76 23.2007 126.277 23.2063 127.793 23.2045C128.531 23.2035 129.332 23.2948 130.059 23.1454C130.291 22.9579 130.175 22.0961 130.155 21.8253C130.057 20.4733 129.621 19.0242 128.507 18.1614C128.049 17.8065 127.531 17.5467 126.965 17.4228C123.529 16.6711 121.467 19.8994 120.875 22.8437Z" fill="white"/>
<path fill-rule="evenodd" clip-rule="evenodd" d="M118.633 61.4127C119.02 58.9233 119.945 56.5546 121.627 54.6426C124.521 51.3548 129.785 50.2675 133.607 52.54C135.593 53.7214 137.078 55.7368 137.367 58.0726C137.45 58.7448 137.59 59.8898 137.013 60.3766C135.805 60.745 134.218 60.4735 132.965 60.47C130.839 60.4645 128.712 60.4859 126.586 60.4876C125.396 60.489 124.17 60.3852 122.986 60.5163C122.631 61.3456 122.972 62.8131 123.126 63.6817C123.873 67.915 127.39 71.5252 131.895 70.9662C133.387 70.7811 134.585 69.991 135.643 68.9542C136.057 68.5477 136.427 67.7905 136.935 67.5355C137.181 67.6292 137.466 67.7157 137.597 67.9582C137.33 68.756 136.767 69.5278 136.285 70.2155C135.597 71.2001 134.759 72.2344 133.742 72.8965C130.051 75.2998 125.367 74.638 122.097 71.8317C119.223 69.3652 118.197 65.0655 118.633 61.4127ZM123.287 58.2899C123.237 58.5116 123.192 58.7064 123.208 58.9351C124.955 58.9994 126.731 58.8939 128.484 58.8915C129.706 58.8897 131.005 59.0416 132.214 58.8482C132.719 58.4068 132.617 57.5357 132.531 56.9404C132.305 55.3663 131.546 53.9922 130.012 53.3931C129.523 53.2021 129.006 53.1232 128.484 53.1156C125.382 53.0707 124.154 55.7863 123.287 58.2899Z" fill="white"/>
<path fill-rule="evenodd" clip-rule="evenodd" d="M124.615 83.1036C125.251 82.8725 126.084 83.0285 126.758 83.0081C128.715 82.9486 130.673 82.9445 132.631 82.9375C133.26 82.9355 133.888 82.9379 134.516 82.9403C134.747 82.9413 135.131 82.8697 135.324 82.986C135.316 83.498 135.21 84.1328 135.305 84.6333C133.936 84.6932 132.551 84.6569 131.181 84.6572C130.899 85.4799 131.089 86.6256 131.093 87.4943C131.101 89.3537 131.027 91.2298 131.1 93.0857C130.994 93.1494 130.67 93.1065 130.549 93.1086C130.053 93.1179 129.541 93.1224 129.047 93.0809C129.017 90.2936 128.967 87.4957 128.989 84.7105C127.59 84.5278 126.079 84.9236 124.705 84.6579C124.665 84.1404 124.642 83.6235 124.615 83.1036Z" fill="white"/>
<path fill-rule="evenodd" clip-rule="evenodd" d="M136.851 18.4663C138.292 17.3164 140.388 16.5526 142.083 15.851C142.556 15.6552 143.543 15.066 144.012 15.4576C144.564 16.7916 144.189 18.6825 144.292 20.1054C144.407 20.2918 145.038 19.1122 145.176 18.9371C145.857 18.0699 146.571 17.1541 147.408 16.4318C148.865 15.1736 150.583 15.2172 152.207 16.1437C152.677 16.4118 153.366 16.7705 153.608 17.2766C153.464 17.7035 153.178 18.0508 152.958 18.4407C152.482 19.2838 152.021 20.2531 151.316 20.9301C150.779 21.1698 149.98 20.2725 149.558 20.014C148.346 19.2713 146.95 19.2319 145.943 20.3174C145.391 20.9114 144.588 21.8545 144.359 22.6449C144.118 23.4821 144.301 24.5739 144.301 25.4401C144.299 27.3874 144.299 29.3351 144.288 31.2824C144.281 32.5454 143.956 34.3952 144.638 35.5288C145.388 36.7777 146.923 36.9991 148.251 36.9818C148.283 37.3194 148.31 37.7622 148.412 38.0822C145.792 38.0905 143.171 38.0864 140.551 38.0808C139.346 38.0781 138.068 37.9456 136.871 38.0632C136.834 37.7442 136.861 37.4287 136.849 37.1094C137.944 36.9991 139.172 36.8572 139.704 35.7381C140.219 34.6539 139.976 33.1391 139.973 31.9722C139.967 29.4358 139.953 26.8993 139.95 24.3625C139.948 23.2123 140.253 21.5358 139.738 20.479C139.111 19.1935 137.823 19.3737 136.818 18.6926C136.829 18.6171 136.84 18.5417 136.851 18.4663Z" fill="white"/>
<path fill-rule="evenodd" clip-rule="evenodd" d="M139.137 89.7362C139.795 89.6722 140.454 89.7026 141.11 89.6486C141.181 89.9396 141.151 90.2713 141.301 90.5398C142.083 91.9412 144.381 91.9242 145.726 91.7326C146.548 91.6157 148.046 91.2195 147.969 90.1316C147.888 88.9896 146.289 88.9391 145.46 88.8803C143.324 88.7298 139.856 88.9007 139.38 86.129C139.326 85.8166 139.346 85.5143 139.403 85.2022C139.696 83.5967 141.565 82.9356 142.968 82.7775C145.002 82.5482 148.073 82.5229 149.343 84.4861C149.643 84.95 149.674 85.4742 149.781 86.0003C149.169 85.9844 148.31 86.2771 147.741 86.1626C147.31 84.1976 144.865 84.2582 143.294 84.4166C142.46 84.5003 141.266 84.9366 141.476 86.001C141.661 86.9441 142.921 87.0046 143.674 87.0814C145.918 87.3104 150.236 87.0143 150.158 90.2734C150.147 90.7297 150.029 91.1652 149.782 91.5523C149.282 92.338 148.324 92.8482 147.459 93.1139C145.567 93.6948 143.291 93.6564 141.418 93.0157C140.418 92.6735 139.571 91.9204 139.222 90.9051C139.109 90.5782 138.957 90.0468 139.137 89.7362Z" fill="white"/>
<path fill-rule="evenodd" clip-rule="evenodd" d="M139.206 73.01C140.31 72.8339 141.426 72.8485 142.122 71.8068C142.882 70.6694 142.67 69.0552 142.668 67.7572C142.666 65.2499 142.728 62.7418 142.692 60.2347C142.677 59.1717 142.844 57.8305 142.475 56.8175C142.213 56.098 141.461 55.4967 140.732 55.2947C140.193 55.1453 139.468 55.302 139.435 54.6011C141.125 53.5591 143.083 52.787 144.895 51.982C145.42 51.7485 146.374 51.1673 146.931 51.5233C147.192 52.7244 147.049 54.1071 147.087 55.3345C147.637 55.1079 148.174 54.3596 148.628 53.9563C149.746 52.9641 151.039 51.9948 152.5 51.5904C153.262 51.379 154.077 51.3247 154.863 51.3825C155.481 51.4278 156.067 51.5433 156.645 51.7689C160.529 53.2855 160.152 57.8166 160.134 61.2169C160.129 62.0783 160.125 62.9393 160.123 63.8007C160.12 64.8963 160.12 65.9916 160.119 67.0872C160.117 68.4886 159.82 70.2892 160.495 71.5702C160.824 72.1946 161.468 72.7032 162.156 72.8588C162.587 72.9567 163.069 72.8879 163.474 73.0674C163.475 73.3746 163.482 73.6708 163.468 73.9786C160.785 74.0883 158.069 73.9368 155.38 73.9748C154.525 73.987 153.636 73.9008 152.788 74.0067C152.755 73.7078 152.766 73.4193 152.772 73.1197C152.874 72.9028 153.374 72.8875 153.606 72.8436C154.101 72.7502 154.564 72.5375 154.908 72.1604C156.017 70.9441 155.632 68.7006 155.62 67.1878C155.603 65.0966 155.615 63.0057 155.615 60.9145C155.615 59.328 155.859 57.4551 155.011 56.0402C154.809 55.7026 154.555 55.4013 154.25 55.1529C151.849 53.1973 148.708 55.2913 147.25 57.4043C147.016 57.7429 147.145 58.3853 147.148 58.7842C147.154 59.8155 147.149 60.8467 147.148 61.878C147.147 64.1093 147.126 66.3406 147.129 68.5719C147.131 69.5551 146.991 70.8064 147.532 71.6816C148.167 72.7073 149.333 72.8965 150.436 72.91C150.468 73.212 150.483 73.724 150.301 73.9807C147.526 73.842 144.709 73.9347 141.931 73.9569C141.276 73.962 140.62 73.9859 139.966 73.979C139.754 73.9769 139.374 74.0247 139.238 73.8306C139.124 73.6673 139.205 73.1667 139.206 73.01Z" fill="white"/>
<path fill-rule="evenodd" clip-rule="evenodd" d="M154.659 95.1245C155.066 94.59 155.497 94.1821 155.724 93.5317C155.528 93.5373 155.277 93.548 155.127 93.4203C155.128 92.6319 155.179 91.8307 155.123 91.0441C155.853 91.0544 156.612 91.0548 157.341 91.0005C157.6 93.1619 157.338 95.2784 155.003 95.9883C154.747 95.8347 154.705 95.6209 154.627 95.3448C154.638 95.2711 154.648 95.1978 154.659 95.1245Z" fill="white"/>
<path fill-rule="evenodd" clip-rule="evenodd" d="M159.473 36.4526C161.527 36.0856 163.52 35.5282 165.605 35.3235C166.224 35.2626 166.858 35.1688 167.481 35.1868C167.7 35.193 168.091 35.3705 168.287 35.2473C167.684 34.4991 166.837 33.9618 166.249 33.154C164.247 30.4049 163.318 26.9679 163.58 23.5902C164.244 23.6164 164.739 24.2551 165.155 24.7138C165.841 25.4686 166.679 26.3494 167.563 26.8676C167.559 26.5345 167.346 26.2169 167.265 25.8993C167.062 25.103 166.86 24.3163 166.747 23.4999C166.309 20.3404 166.649 16.6665 168.25 13.8516C168.725 13.9374 169.019 14.4556 169.265 14.8489C169.728 15.5875 170.114 16.361 170.483 17.1501C170.634 17.4739 170.683 17.8911 170.906 18.1703C171.343 16.3655 172.092 14.6417 172.632 12.8649C173.382 10.4011 173.862 7.79482 174.023 5.22413C174.258 4.9498 174.6 5.44381 174.784 5.63857C175.388 6.27683 175.937 6.9829 176.391 7.73497C177.526 9.61343 178.445 11.6943 178.886 13.8543C179.135 15.0714 179.003 16.36 179.24 17.5538C179.556 17.4286 179.847 16.7014 180.024 16.4119C180.744 15.2329 181.335 14.01 181.549 12.6325C181.611 12.2333 181.678 11.834 181.751 11.4366C181.765 11.3549 181.824 11.0276 181.852 11.0176C181.95 10.9816 182.034 11.1211 182.125 11.1726C185.531 14.3978 184.834 19.7312 184.389 23.8894C184.646 24.1886 185.237 23.0657 185.42 22.8298C186.357 21.6221 187.012 20.1311 187.447 18.6747C187.803 18.7428 188.021 19.1842 188.189 19.4745C188.593 20.1726 188.968 20.8513 189.214 21.6245C190.262 24.9141 189.61 29.0951 187.713 31.973C187.183 32.7766 186.601 33.538 185.934 34.233C185.745 34.4306 185.119 34.8537 185.069 35.0948C187.681 35.4954 190.45 35.6095 192.983 36.4658C192.973 36.9708 192.953 37.4693 192.921 37.9734C181.763 38.0917 170.561 38.1204 159.403 37.9509C159.425 37.4821 159.437 36.9757 159.361 36.5131C159.399 36.4927 159.436 36.4727 159.473 36.4526ZM171.057 29.4168C170.925 31.286 171.222 33.2789 172.62 34.6371C173.075 35.0792 173.484 35.1647 174.079 35.2878C174.22 35.3172 174.562 35.4127 174.681 35.2947C174.427 34.9087 174.049 34.5921 173.776 34.2119C173.178 33.3775 172.902 32.2736 172.899 31.2538C172.897 30.6162 173.009 29.7953 173.648 29.4874C174.272 29.5801 174.607 30.7529 174.909 31.2365C175.739 32.5646 176.831 33.6965 178.073 34.6406C178.441 34.9197 179.017 35.5393 179.514 35.5182C179.849 35.5044 180.312 35.0768 180.547 34.8685C183.071 32.64 183.523 28.7309 182.242 25.7803C181.8 24.7619 181.217 23.8161 180.707 22.8332C180.619 22.6637 180.243 21.9092 180.073 22.0701C180.098 24.1509 179.469 26.5632 178.229 28.2375C178.079 28.2818 177.763 27.9957 177.648 27.9089C177.186 27.5598 176.814 27.1288 176.484 26.6545C175.51 25.2538 175.071 23.477 174.748 21.8245C174.653 21.3377 174.533 20.8098 174.514 20.3148C174.505 20.0647 174.58 19.7668 174.378 19.5797C174.019 20.2909 173.811 21.1046 173.494 21.8418C172.767 23.5345 171.932 25.1926 171.429 26.9735C171.202 27.7764 171.177 28.5984 171.057 29.4168Z" fill="white"/>
<path fill-rule="evenodd" clip-rule="evenodd" d="M163.545 54.33C163.869 53.743 164.507 53.3919 165.027 52.9895C165.806 52.3855 166.545 51.7521 167.208 51.0177C168.688 49.3779 169.4 47.461 170.436 45.5687C170.783 45.3252 171.263 45.4836 171.666 45.4975C171.625 47.0971 171.642 48.7064 171.662 50.3074C171.667 50.706 171.473 51.7497 171.71 52.0368C173.531 51.8379 175.451 51.9946 177.281 52.0081C177.808 52.0119 178.923 51.84 179.318 52.2451C179.283 52.6377 178.938 53.0106 178.693 53.3009C177.438 54.7863 175.243 54.3664 173.468 54.328C173.026 54.3183 171.972 54.0637 171.644 54.3363C171.56 57.6601 171.633 60.9932 171.645 64.3184C171.651 65.9219 171.357 67.9477 171.869 69.4847C172.455 71.248 174.492 71.9284 176.119 71.1615C176.908 70.7896 177.313 70.1316 177.975 69.6213C178.221 69.6746 178.443 69.8137 178.621 69.9915C178.584 70.8498 177.655 71.8509 177.097 72.4418C174.791 74.8803 170.047 75.4439 168.057 72.2654C166.878 70.3821 167.065 68.0068 167.069 65.8738C167.075 62.0622 166.922 58.2063 167.094 54.3999C165.939 54.1975 164.748 54.5321 163.597 54.4968C163.579 54.4411 163.562 54.3857 163.545 54.33Z" fill="white"/>
<path fill-rule="evenodd" clip-rule="evenodd" d="M171.684 82.924C172.341 82.9119 173.17 82.7929 173.806 82.9821C173.541 85.7694 173.802 88.6908 173.797 91.4912C174.205 91.6694 174.934 91.5227 175.383 91.5279C176.647 91.5424 177.911 91.5452 179.175 91.5504C179.711 91.5525 180.441 91.4137 180.945 91.5836C180.946 91.9486 181.06 92.8401 180.849 93.1445C178.644 93.0002 176.384 93.1334 174.173 93.121C173.599 93.1179 173.025 93.1165 172.451 93.1144C172.208 93.1137 171.883 93.2102 171.671 93.0805C171.673 89.6993 171.764 86.3035 171.684 82.924Z" fill="white"/>
<path fill-rule="evenodd" clip-rule="evenodd" d="M180.196 73.346C180.199 73.2702 180.204 73.1945 180.208 73.1187C181.251 72.7434 182.399 72.7793 182.994 71.6523C183.548 70.6047 183.348 69.0542 183.347 67.9099C183.345 65.407 183.357 62.9044 183.362 60.4019C183.365 59.2831 183.648 57.6005 183.096 56.5886C182.49 55.4778 181.413 55.3287 180.325 54.9717C180.064 54.4088 181.455 54.0176 181.851 53.8356C183.162 53.234 184.453 52.5957 185.758 51.982C186.354 51.7018 186.999 51.2704 187.678 51.3894C187.907 51.6807 187.777 52.2411 187.776 52.6009C187.771 53.6813 187.821 54.7624 187.823 55.8431C187.829 59.3291 187.807 62.8141 187.811 66.2964C187.813 67.7857 187.511 69.7894 188.097 71.1838C188.695 72.6095 189.933 72.8226 191.306 72.9097C191.368 73.2529 191.321 73.611 191.315 73.9576C190.337 74.2077 188.981 73.9396 187.968 73.9317C185.393 73.9113 182.762 73.7905 180.193 73.9708C180.163 73.7618 180.18 73.556 180.196 73.346Z" fill="white"/>
<path fill-rule="evenodd" clip-rule="evenodd" d="M182.083 44.6316C182.158 44.1943 182.326 43.7422 182.568 43.3706C184.453 40.4834 188.634 42.4694 188.172 45.6895C187.616 49.5657 181.424 48.5033 182.083 44.6316Z" fill="white"/>
<path fill-rule="evenodd" clip-rule="evenodd" d="M185.296 82.9265C185.971 82.9296 186.65 82.9348 187.324 82.9141C187.617 83.4482 187.363 84.6289 187.363 85.2485C187.365 87.3172 187.255 89.4202 187.411 91.4837C189.762 91.3837 192.265 91.4194 194.618 91.555C194.58 92.0144 194.475 92.6993 194.592 93.1342C191.526 93.0695 188.438 93.0875 185.374 93.1629C185.206 92.9803 185.275 92.5869 185.274 92.3413C185.272 91.7065 185.268 91.0721 185.267 90.4373C185.265 87.9344 185.323 85.4284 185.296 82.9265Z" fill="white"/>
<path fill-rule="evenodd" clip-rule="evenodd" d="M192.783 62.9749C192.861 60.571 193.411 58.0681 194.772 56.0495C198.403 50.6632 206.498 49.6275 211.097 54.3679C213.299 56.6376 214.174 59.9265 214.056 63.0313C213.946 65.9649 213.024 68.711 211.002 70.8807C207.233 74.9237 200.055 75.9432 195.962 71.7605C194.888 70.6635 194.152 69.3153 193.582 67.9022C192.963 66.3693 192.73 64.6233 192.783 62.9749ZM197.44 60.3838C197.209 63.8931 197.846 68.1779 200.398 70.7891C200.892 71.2955 201.452 71.7321 202.101 72.0223C202.611 72.2503 203.157 72.3939 203.716 72.4254C207.675 72.6475 208.916 68.3626 209.145 65.1744C209.405 61.5535 208.866 57.2171 206.111 54.5741C205.631 54.1133 205.071 53.7193 204.449 53.475C203.938 53.2741 203.39 53.1734 202.842 53.1775C199.091 53.2069 197.648 57.2181 197.44 60.3838Z" fill="white"/>
<path fill-rule="evenodd" clip-rule="evenodd" d="M198.471 87.0129C198.762 85.5243 199.428 84.2419 200.746 83.4124C204.022 81.3499 209.815 82.5385 210.653 86.6974C209.881 86.6718 209.122 86.558 208.346 86.5839C208.146 86.3176 208.066 85.9547 207.875 85.6714C207.475 85.0774 206.828 84.6986 206.161 84.4772C205.419 84.2308 204.641 84.1471 203.865 84.2305C202.91 84.3332 201.938 84.6992 201.29 85.4333C200.07 86.8133 200.316 89.2875 201.515 90.6034C202.776 91.9889 205.112 92.0204 206.725 91.3126C207.554 90.9483 207.936 90.2872 208.319 89.5123C208.958 89.3065 209.955 89.4874 210.628 89.4992C210.596 89.8794 210.37 90.2852 210.189 90.6145C209.154 92.4978 207.418 93.0451 205.426 93.3564C203.341 93.6823 200.556 93.1302 199.31 91.2746C198.483 90.044 198.3 88.4586 198.471 87.0129Z" fill="white"/>
<path fill-rule="evenodd" clip-rule="evenodd" d="M200.474 28.6681C202.059 27.22 204.909 26.7685 206.915 27.3608C208.132 27.7202 209.158 28.4636 210.468 28.5055C212.381 28.5667 213.808 27.1318 215.694 27.0273C216.491 26.983 217.355 27.0484 218.108 27.3317C219.155 27.7257 220.091 28.3356 221.238 28.4052C223.141 28.5207 224.749 27.1231 226.647 27.0235C228.485 26.927 229.821 28.0845 231.552 28.4003C233.63 28.7795 235.245 27.3974 237.24 27.1525C238.004 27.0588 239.206 27.0923 239.77 27.7039C239.797 27.9163 239.876 28.4491 239.698 28.6127C238.651 28.5622 237.832 28.2184 236.749 28.4546C235.192 28.7947 233.902 29.6416 232.244 29.6014C231.412 29.5814 230.604 29.4298 229.829 29.1233C228.941 28.7719 228.091 28.274 227.113 28.2571C225.155 28.2232 223.538 29.5475 221.602 29.6042C219.649 29.6616 218.122 28.3093 216.217 28.2571C214.326 28.2049 212.76 29.4852 210.883 29.626C208.845 29.7789 207.237 28.4349 205.277 28.3242C203.603 28.2294 202.283 29.2437 200.693 29.3638C200.518 29.1368 200.49 28.9545 200.474 28.6681Z" fill="white"/>
<path fill-rule="evenodd" clip-rule="evenodd" d="M200.499 32.9743C201.845 31.3636 204.839 30.9488 206.726 31.5335C207.987 31.924 209.02 32.7412 210.387 32.7792C212.32 32.8328 213.817 31.4017 215.729 31.2726C217.781 31.1339 219.228 32.5927 221.196 32.729C223.263 32.8723 224.922 31.3411 226.998 31.2546C228.778 31.1806 230.047 32.4218 231.723 32.7304C233.838 33.12 235.371 31.5864 237.401 31.392C238.177 31.3176 239.166 31.2287 239.73 31.8645C239.838 32.0897 239.9 32.4789 239.738 32.692C238.713 32.6415 237.839 32.3731 236.797 32.6215C235.265 32.9868 234.072 33.9215 232.426 33.9302C230.486 33.9402 228.986 32.4212 227.115 32.4173C225.082 32.4135 223.454 33.8513 221.415 33.8987C219.505 33.943 218.1 32.4426 216.248 32.4218C214.295 32.3997 212.788 33.7949 210.86 33.9305C208.808 34.0748 207.327 32.6163 205.379 32.4796C204.459 32.4153 203.58 32.5817 202.724 32.919C202.081 33.1719 201.428 33.6299 200.729 33.6745C200.59 33.4434 200.553 33.2383 200.499 32.9743Z" fill="white"/>
<path fill-rule="evenodd" clip-rule="evenodd" d="M200.496 37.3288C202.201 36.0426 204.432 35.2992 206.557 35.8492C208.007 36.2245 209.094 37.1856 210.662 37.1499C212.423 37.1098 213.777 35.8212 215.531 35.6987C216.375 35.6399 217.311 35.6662 218.104 35.999C219.11 36.4217 219.93 37.0351 221.055 37.1185C223.072 37.2679 224.651 35.7606 226.656 35.6596C227.491 35.6178 228.322 35.6908 229.097 36.0211C229.932 36.3771 230.645 36.9265 231.549 37.1029C233.754 37.5339 235.387 35.8201 237.507 35.7236C238.211 35.6918 239.185 35.6133 239.721 36.1564C239.795 36.5162 239.767 36.8552 239.771 37.2188C239.442 37.2029 239.1 37.0289 238.769 36.978C238.083 36.8725 237.273 36.9102 236.601 37.0887C236.048 37.2354 235.545 37.5841 235.018 37.8069C234.092 38.1992 233.137 38.4202 232.127 38.3856C230.301 38.3234 228.972 36.9538 227.198 36.8673C225.076 36.7639 223.465 38.3303 221.336 38.3701C219.469 38.405 218.159 36.9272 216.371 36.8829C214.336 36.832 212.875 38.2739 210.894 38.4182C208.849 38.5673 207.442 37.1143 205.501 36.9645C204.674 36.9005 203.821 36.9676 203.039 37.2589C202.274 37.5436 201.561 38.0906 200.736 38.1608C200.558 37.9079 200.496 37.6367 200.496 37.3288Z" fill="white"/>
<path fill-rule="evenodd" clip-rule="evenodd" d="M200.856 24.0605C201.682 23.5056 202.364 22.638 203.137 21.9962C205.582 19.9673 207.95 17.8501 210.344 15.7617C212.373 13.9918 214.354 12.1532 216.413 10.4193C217.757 9.2867 219.262 8.1617 220.465 6.88276C220.742 6.85992 221.019 7.26813 221.214 7.44248C221.857 8.01951 222.499 8.61246 223.164 9.16493C224.871 10.5833 226.458 12.1552 228.091 13.657C229.101 14.5855 230.188 15.4566 231.132 16.4525C231.124 15.2424 231.176 14.0292 231.172 12.8177C231.169 12.0269 231.078 11.161 231.293 10.3937C231.842 10.072 233.068 10.2885 233.7 10.301C233.947 10.3058 234.237 10.2989 234.407 10.4937C234.456 12.4033 234.432 14.3205 234.428 16.2322C234.426 17.124 234.284 18.1584 234.443 19.0326C235.433 20.3817 237.06 21.4998 238.32 22.5933C238.861 23.0631 239.53 23.4914 239.886 24.1304C239.156 24.2006 237.892 24.2833 237.195 24.0235C236.741 23.8543 236.363 23.4423 236 23.134C235.192 22.4463 234.392 21.7468 233.579 21.0632C230.553 18.5154 227.726 15.7288 224.756 13.1152C223.734 12.2165 222.713 11.316 221.694 10.4141C221.327 10.09 220.872 9.56034 220.367 9.53578C219.832 9.8025 219.424 10.2415 218.974 10.6276C218.072 11.4035 217.179 12.1912 216.274 12.9647C213.345 15.4704 210.521 18.1155 207.555 20.5744C206.624 21.3466 205.688 22.1305 204.781 22.9313C204.361 23.3022 203.882 23.8937 203.36 24.1117C202.601 24.4292 201.574 24.2051 200.784 24.1885C200.808 24.1456 200.832 24.103 200.856 24.0605Z" fill="white"/>
<path fill-rule="evenodd" clip-rule="evenodd" d="M205.801 23.8819C206.531 23.0094 207.455 22.2919 208.293 21.5274C209.924 20.0409 211.569 18.5668 213.247 17.1343C215.597 15.0894 217.942 13.0463 220.256 10.9603C220.613 10.9302 221.052 11.4387 221.311 11.6663C222.114 12.371 222.917 13.0736 223.709 13.7915C226.443 16.2708 229.149 18.7872 231.902 21.2448C232.627 21.892 233.376 22.5119 234.096 23.1647C234.346 23.3913 234.789 23.6532 234.869 23.9881C234.376 24.4783 233.842 24.2333 233.348 23.9137C232.503 23.3661 231.744 22.6455 230.995 21.9754C227.483 18.8363 223.811 15.8571 220.397 12.609C219.004 13.4683 217.802 14.886 216.573 15.9712C214.468 17.8296 212.26 19.5642 210.159 21.4264C209.42 22.0819 208.657 22.7112 207.914 23.3633C207.64 23.6041 207.299 24.0109 206.927 24.0891C206.536 24.1711 206.152 24.0389 205.801 23.8819Z" fill="white"/>
<path fill-rule="evenodd" clip-rule="evenodd" d="M215.989 73.0489C217.1 72.8887 218.244 72.7323 218.839 71.6378C219.471 70.4751 219.218 68.8772 219.217 67.6058C219.216 65.2503 219.226 62.8945 219.242 60.5386C219.25 59.4067 219.448 58.0125 219.083 56.9263C218.832 56.1752 218.149 55.6581 217.418 55.4245C216.868 55.2488 216.107 55.3848 216.133 54.6005C217.813 53.5734 219.694 52.8227 221.491 52.0298C222.067 51.7756 222.955 51.2252 223.564 51.6154C223.67 52.7944 223.62 54.0657 223.582 55.2512C223.777 55.3388 224.178 54.8593 224.319 54.7261C225.046 54.0377 225.816 53.4091 226.641 52.8411C229.309 51.0052 233.207 50.6028 235.346 53.4765C236.683 55.2734 236.581 57.3476 236.574 59.4776C236.566 62.0144 236.578 64.5512 236.582 67.088C236.584 68.8744 236.104 71.7156 238.107 72.6144C238.688 72.8749 239.3 72.8551 239.92 72.9108C240.006 73.2948 239.875 73.684 239.915 74.058C237.699 74.0587 235.483 73.9594 233.265 73.977C231.936 73.9874 230.484 74.2168 229.171 74.0196C229.17 73.7172 229.084 73.2907 229.265 73.0402C230.444 72.9596 231.593 72.4113 231.94 71.1943C232.38 69.6503 232.082 67.7677 232.082 66.1778C232.081 63.3041 232.421 60.2117 231.989 57.3656C231.772 55.9352 230.868 54.7635 229.402 54.4715C227.596 54.111 225.903 55.0527 224.685 56.3102C224.371 56.6343 223.859 57.0979 223.728 57.5417C223.503 58.2993 223.712 59.3769 223.712 60.1671C223.713 62.1846 223.703 64.2025 223.696 66.2203C223.692 67.2879 223.684 68.3551 223.671 69.4224C223.663 70.1271 223.64 70.902 223.973 71.5447C224.635 72.8209 225.69 72.6493 226.826 73.0267C226.806 73.2644 226.961 73.8615 226.751 73.9964C225.221 73.8798 223.644 73.9833 222.108 73.9801C220.104 73.976 218.086 73.8906 216.083 73.9584C215.941 73.6743 215.992 73.3602 215.989 73.0489Z" fill="white"/>
<path fill-rule="evenodd" clip-rule="evenodd" d="M217.418 22.1024C217.868 21.7364 219.28 21.8339 219.857 21.9304C219.868 22.5486 219.826 23.1748 219.854 23.7902C219.37 24.151 218.104 23.8719 217.53 23.8252C217.338 23.2844 217.378 22.6669 217.418 22.1024Z" fill="white"/>
<path fill-rule="evenodd" clip-rule="evenodd" d="M217.54 18.915C218.252 18.6735 219.126 18.7752 219.868 18.7981C219.933 19.4574 219.944 20.2237 219.884 20.8834C219.779 21.037 219.514 20.9771 219.345 20.9764C218.737 20.9744 218.116 21.0342 217.515 20.9353C217.489 20.2586 217.502 19.5906 217.54 18.915Z" fill="white"/>
<path fill-rule="evenodd" clip-rule="evenodd" d="M220.859 19.0206C220.879 18.9545 220.899 18.8884 220.918 18.8223C221.669 18.8618 222.453 18.7037 223.196 18.8535C223.211 19.4931 223.134 20.2324 223.267 20.8575C222.5 20.9115 221.599 21.0187 220.838 20.9333C220.874 20.2961 220.805 19.6571 220.859 19.0206Z" fill="white"/>
<path fill-rule="evenodd" clip-rule="evenodd" d="M220.882 21.9257C221.278 21.5707 222.766 21.7866 223.318 21.8215C223.323 22.4733 223.244 23.1285 223.243 23.7799C222.513 23.7913 221.556 24.0445 220.853 23.8667C220.886 23.2202 220.835 22.5722 220.882 21.9257Z" fill="white"/>
</g>
<defs>
<clipPath id="clip0_17_108">
<rect width="240" height="96" fill="white"/>
</clipPath>
</defs>
</svg>
